<svg width="24" height="24" viewBox="0 0 24 24" fill="none" xmlns="http://www.w3.org/2000/svg">
<rect width="24" height="24" fill="none"/>
<path fill-rule="evenodd" clip-rule="evenodd" d="M20 17V7L4 7L4 17L20 17ZM22 7C22 5.89543 21.1046 5 20 5L4 5C2.89543 5 2 5.89543 2 7L2 17C2 18.1046 2.89543 19 4 19L20 19C21.1046 19 22 18.1046 22 17V7Z" fill="black"/>
<path fill-rule="evenodd" clip-rule="evenodd" d="M21.5215 7.35328L13.5948 12.1974C12.6107 12.7988 11.369 12.7828 10.4007 12.1562L2.95675 7.33957L4.04325 5.66043L11.4872 10.4771C11.8099 10.6859 12.2238 10.6913 12.5519 10.4908L20.4785 5.64672L21.5215 7.35328Z" fill="black"/>
</svg>
