<svg width="24" height="24" viewBox="0 0 24 24" fill="none" xmlns="http://www.w3.org/2000/svg">
<rect width="24" height="24" fill="none"/>
<path fill-rule="evenodd" clip-rule="evenodd" d="M12 10C13.6569 10 15 8.65685 15 7C15 5.34315 13.6569 4 12 4C10.3431 4 9 5.34315 9 7C9 8.65685 10.3431 10 12 10ZM12 12C14.7614 12 17 9.76142 17 7C17 4.23858 14.7614 2 12 2C9.23858 2 7 4.23858 7 7C7 9.76142 9.23858 12 12 12Z" fill="black"/>
<path fill-rule="evenodd" clip-rule="evenodd" d="M22 16C22 13.7909 20.2091 12 18 12H17C16.25 12 15.375 12.625 14.5 13.25C13.625 13.875 12.75 14.5 12 14.5C11.25 14.5 10.375 13.875 9.5 13.25C8.625 12.625 7.75 12 7 12H6C3.79086 12 2 13.7909 2 16V22H22V16ZM20 20V16C20 14.8954 19.1046 14 18 14H17.0626C17.031 14.0108 16.9376 14.0448 16.7682 14.1389C16.4643 14.3077 16.1228 14.5486 15.6625 14.8775L15.6215 14.9067C15.213 15.1986 14.6967 15.5675 14.1744 15.8577C13.6589 16.1441 12.8895 16.5 12 16.5C11.1105 16.5 10.3411 16.1441 9.82559 15.8577C9.30329 15.5675 8.78696 15.1986 8.37845 14.9067C8.36469 14.8969 8.35104 14.8871 8.33752 14.8775C7.87716 14.5486 7.53569 14.3077 7.23184 14.1389C7.06244 14.0448 6.96899 14.0108 6.93738 14H6C4.89543 14 4 14.8954 4 16V20H20Z" fill="black"/>
</svg>
