<svg width="24" height="24" viewBox="0 0 24 24" fill="none" xmlns="http://www.w3.org/2000/svg">
<g clip-path="url(#clip0)">
<rect width="24" height="24" fill="none"/>
<path fill-rule="evenodd" clip-rule="evenodd" d="M12 15C10.3431 15 8.99997 13.6568 8.99997 12C8.99997 10.3431 10.3431 8.99997 12 8.99997C13.6568 8.99997 15 10.3431 15 12C15 13.6568 13.6568 15 12 15ZM12 17C9.23855 17 6.99997 14.7614 6.99997 12C6.99997 9.23855 9.23855 6.99997 12 6.99997C14.7614 6.99997 17 9.23855 17 12C17 14.7614 14.7614 17 12 17Z" fill="black"/>
<path d="M11 5.99997C11 5.44768 11.4477 4.99997 12 4.99997C12.5523 4.99997 13 5.44768 13 5.99997V7.99997C13 8.55225 12.5523 8.99997 12 8.99997C11.4477 8.99997 11 8.55225 11 7.99997V5.99997Z" fill="black"/>
<path d="M11 16C11 15.4477 11.4477 15 12 15C12.5523 15 13 15.4477 13 16V18C13 18.5523 12.5523 19 12 19C11.4477 19 11 18.5523 11 18V16Z" fill="black"/>
<path d="M18 11C18.5523 11 19 11.4477 19 12C19 12.5523 18.5523 13 18 13H16C15.4477 13 15 12.5523 15 12C15 11.4477 15.4477 11 16 11H18Z" fill="black"/>
<path d="M7.99997 11C8.55225 11 8.99997 11.4477 8.99997 12C8.99997 12.5523 8.55225 13 7.99997 13H5.99997C5.44768 13 4.99997 12.5523 4.99997 12C4.99997 11.4477 5.44768 11 5.99997 11H7.99997Z" fill="black"/>
<path d="M15.5355 7.05022C15.926 6.65969 16.5592 6.65969 16.9497 7.05022C17.3402 7.44074 17.3402 8.0739 16.9497 8.46443L15.5355 9.87864C15.145 10.2692 14.5118 10.2692 14.1213 9.87864C13.7308 9.48812 13.7308 8.85495 14.1213 8.46443L15.5355 7.05022Z" fill="black"/>
<path d="M8.46443 14.1213C8.85496 13.7308 9.48812 13.7308 9.87865 14.1213C10.2692 14.5118 10.2692 15.145 9.87865 15.5355L8.46443 16.9497C8.07391 17.3402 7.44074 17.3402 7.05022 16.9497C6.65969 16.5592 6.65969 15.926 7.05022 15.5355L8.46443 14.1213Z" fill="black"/>
<path d="M16.9497 15.5355C17.3402 15.926 17.3402 16.5592 16.9497 16.9497C16.5592 17.3402 15.926 17.3402 15.5355 16.9497L14.1213 15.5355C13.7308 15.145 13.7308 14.5118 14.1213 14.1213C14.5118 13.7308 15.145 13.7308 15.5355 14.1213L16.9497 15.5355Z" fill="black"/>
<path d="M9.87865 8.46443C10.2692 8.85496 10.2692 9.48812 9.87865 9.87865C9.48812 10.2692 8.85496 10.2692 8.46443 9.87865L7.05022 8.46443C6.6597 8.07391 6.6597 7.44074 7.05022 7.05022C7.44075 6.65969 8.07391 6.65969 8.46443 7.05022L9.87865 8.46443Z" fill="black"/>
</g>

</svg>
