<?xml version="1.0" encoding="utf-8"?>
<!-- Generator: Adobe Illustrator 18.1.1, SVG Export Plug-In . SVG Version: 6.00 Build 0)  -->
<svg version="1.1" id="Слой_1" xmlns="http://www.w3.org/2000/svg" xmlns:xlink="http://www.w3.org/1999/xlink" x="0px" y="0px"
	 viewBox="221.17 5 24 24" enable-background="new 221.17 5 24 24" xml:space="preserve">
<rect x="221.17" y="5" fill="none" width="24" height="24"/>
<path d="M233.17,24c0.55,0,1,0.45,1,1s-0.45,1-1,1s-1-0.45-1-1S232.62,24,233.17,24 M233.17,22c-1.66,0-3,1.34-3,3
	c0,1.66,1.34,3,3,3c1.66,0,3-1.34,3-3C236.17,23.34,234.82,22,233.17,22L233.17,22z M233.17,8c2.21,0,3,0.45,3,2.98
	c0,3.94-2.07,7.9-3,8.02c-0.94-0.12-3-4.08-3-8.02C230.17,8.45,230.95,8,233.17,8 M233.17,6c-2.76,0-5,0.83-5,4.98
	c0,4.14,2.24,10.02,5,10.02c2.76,0,5-5.88,5-10.02C238.17,6.83,235.93,6,233.17,6L233.17,6z"/>
</svg>
