<?xml version="1.0" encoding="utf-8"?>
<!-- Generator: Adobe Illustrator 18.1.1, SVG Export Plug-In . SVG Version: 6.00 Build 0)  -->
<svg version="1.1" id="Слой_1" xmlns="http://www.w3.org/2000/svg" xmlns:xlink="http://www.w3.org/1999/xlink" x="0px" y="0px"
	 viewBox="150.67 5 24 24" enable-background="new 150.67 5 24 24" xml:space="preserve">
<rect x="150.67" y="5" fill="none" width="24" height="24"/>
<path d="M164.96,12.29c0.39-0.39,1.02-0.39,1.41,0l4,4c0.39,0.39,0.39,1.02,0,1.41l-4,4c-0.39,0.39-1.02,0.39-1.41,0
	c-0.39-0.39-0.39-1.02,0-1.41l2.29-2.29h-7.59c-0.55,0-1-0.45-1-1s0.45-1,1-1h7.59l-2.29-2.29
	C164.57,13.32,164.57,12.68,164.96,12.29z"/>
<g>
	<path d="M166.17,26h-8.29c-1.77,0-3.21-1.47-3.21-3.29V11.29c0-1.81,1.44-3.29,3.21-3.29h8.29c0.55,0,1,0.45,1,1s-0.45,1-1,1h-8.29
		c-0.67,0-1.21,0.58-1.21,1.29v11.43c0,0.71,0.54,1.29,1.21,1.29h8.29c0.55,0,1,0.45,1,1S166.72,26,166.17,26z"/>
</g>
</svg>
