<?xml version="1.0" encoding="utf-8"?>
<!-- Generator: Adobe Illustrator 18.1.1, SVG Export Plug-In . SVG Version: 6.00 Build 0)  -->
<svg version="1.1" id="Слой_1" xmlns="http://www.w3.org/2000/svg" xmlns:xlink="http://www.w3.org/1999/xlink" x="0px" y="0px"
	 viewBox="119.92 120.9 24 24" enable-background="new 119.92 120.9 24 24" xml:space="preserve">
<rect x="119.92" y="120.9" fill="none" width="24" height="24"/>
<g>
	<g>
		<path fill="#2C558C" d="M139.95,121.9h-16.07c-1.64,0-2.96,1.33-2.96,2.96v16.07c0,1.64,1.33,2.96,2.96,2.96h7.93l0.01-7.86h-2.04
			c-0.27,0-0.48-0.21-0.48-0.48l-0.01-2.53c0-0.27,0.22-0.48,0.48-0.48h2.04v-2.45c0-2.84,1.74-4.39,4.27-4.39h2.08
			c0.27,0,0.48,0.22,0.48,0.48v2.14c0,0.27-0.22,0.48-0.48,0.48l-1.28,0c-1.38,0-1.65,0.65-1.65,1.62v2.12h3.03
			c0.29,0,0.51,0.25,0.48,0.54l-0.3,2.53c-0.03,0.24-0.23,0.43-0.48,0.43h-2.72l-0.01,7.86h4.72c1.64,0,2.96-1.33,2.96-2.96v-16.07
			C142.92,123.22,141.59,121.9,139.95,121.9L139.95,121.9z M139.95,121.9"/>
	</g>
	<g>
		<path fill="#FFFFFF" d="M131.81,143.9l0.01-7.86h-2.04c-0.27,0-0.48-0.21-0.48-0.48l-0.01-2.53c0-0.27,0.22-0.48,0.48-0.48h2.04
			v-2.45c0-2.84,1.74-4.39,4.27-4.39h2.08c0.27,0,0.48,0.22,0.48,0.48v2.14c0,0.27-0.22,0.48-0.48,0.48l-1.28,0
			c-1.38,0-1.65,0.65-1.65,1.62v2.12h3.03c0.29,0,0.51,0.25,0.48,0.54l-0.3,2.53c-0.03,0.24-0.23,0.43-0.48,0.43h-2.72l-0.01,7.86
			L131.81,143.9z"/>
	</g>
</g>
</svg>
