<?xml version="1.0" encoding="utf-8"?>
<!-- Generator: Adobe Illustrator 18.1.1, SVG Export Plug-In . SVG Version: 6.00 Build 0)  -->
<svg version="1.1" id="Слой_1" xmlns="http://www.w3.org/2000/svg" xmlns:xlink="http://www.w3.org/1999/xlink" x="0px" y="0px"
	 viewBox="153.87 120.9 24 24" enable-background="new 153.87 120.9 24 24" xml:space="preserve">
<rect x="153.87" y="120.9" fill="none" width="24" height="24"/>
<g>
	
		<radialGradient id="SVGID_1_" cx="156.2035" cy="-109.2544" r="27.9293" gradientTransform="matrix(1.0001 0 0 -1.0001 0.0787 34.1493)" gradientUnits="userSpaceOnUse">
		<stop  offset="0.09" style="stop-color:#EE7700"/>
		<stop  offset="0.78" style="stop-color:#E62369"/>
	</radialGradient>
	<path fill="url(#SVGID_1_)" d="M160.45,143.82c-1.31-0.06-2.02-0.28-2.49-0.46c-0.63-0.24-1.07-0.53-1.54-1
		c-0.47-0.47-0.76-0.92-1-1.54c-0.18-0.47-0.4-1.18-0.46-2.49c-0.07-1.41-0.08-1.84-0.08-5.42s0.01-4.01,0.08-5.42
		c0.06-1.31,0.28-2.02,0.46-2.49c0.24-0.63,0.53-1.07,1-1.54c0.47-0.47,0.92-0.76,1.54-1c0.47-0.18,1.18-0.4,2.49-0.46
		c1.41-0.06,1.84-0.08,5.42-0.08c3.58,0,4.01,0.01,5.42,0.08c1.31,0.06,2.02,0.28,2.49,0.46c0.63,0.24,1.07,0.53,1.54,1
		c0.47,0.47,0.76,0.92,1,1.54c0.18,0.47,0.4,1.18,0.46,2.49c0.06,1.42,0.08,1.84,0.08,5.42c0,3.58-0.01,4.01-0.08,5.42
		c-0.06,1.31-0.28,2.02-0.46,2.49c-0.24,0.63-0.53,1.07-1,1.54c-0.47,0.47-0.92,0.76-1.54,1c-0.47,0.18-1.18,0.4-2.49,0.46
		c-1.41,0.06-1.84,0.08-5.42,0.08C162.29,143.9,161.87,143.88,160.45,143.82"/>
	
		<radialGradient id="SVGID_2_" cx="170.0171" cy="-108.5481" r="24.5781" gradientTransform="matrix(1.0001 0 0 -1.0001 0.0787 34.1493)" gradientUnits="userSpaceOnUse">
		<stop  offset="0.64" style="stop-color:#883E8F;stop-opacity:0"/>
		<stop  offset="1" style="stop-color:#883E8F"/>
	</radialGradient>
	<path fill="url(#SVGID_2_)" d="M160.45,143.82c-1.31-0.06-2.02-0.28-2.49-0.46c-0.63-0.24-1.07-0.53-1.54-1
		c-0.47-0.47-0.76-0.92-1-1.54c-0.18-0.47-0.4-1.18-0.46-2.49c-0.07-1.41-0.08-1.84-0.08-5.42s0.01-4.01,0.08-5.42
		c0.06-1.31,0.28-2.02,0.46-2.49c0.24-0.63,0.53-1.07,1-1.54c0.47-0.47,0.92-0.76,1.54-1c0.47-0.18,1.18-0.4,2.49-0.46
		c1.41-0.06,1.84-0.08,5.42-0.08c3.58,0,4.01,0.01,5.42,0.08c1.31,0.06,2.02,0.28,2.49,0.46c0.63,0.24,1.07,0.53,1.54,1
		c0.47,0.47,0.76,0.92,1,1.54c0.18,0.47,0.4,1.18,0.46,2.49c0.06,1.42,0.08,1.84,0.08,5.42c0,3.58-0.01,4.01-0.08,5.42
		c-0.06,1.31-0.28,2.02-0.46,2.49c-0.24,0.63-0.53,1.07-1,1.54c-0.47,0.47-0.92,0.76-1.54,1c-0.47,0.18-1.18,0.4-2.49,0.46
		c-1.41,0.06-1.84,0.08-5.42,0.08C162.29,143.9,161.87,143.88,160.45,143.82"/>
	<path fill="#FFFFFF" d="M163.17,132.94c0-1.5,1.22-2.72,2.72-2.72c1.5,0,2.72,1.22,2.72,2.72c0,1.5-1.22,2.72-2.72,2.72
		C164.39,135.67,163.17,134.45,163.17,132.94 M161.7,132.94c0,2.32,1.88,4.2,4.2,4.2s4.2-1.88,4.2-4.2s-1.88-4.2-4.2-4.2
		S161.7,130.62,161.7,132.94 M169.28,128.58c0,0.54,0.44,0.98,0.98,0.98c0.54,0,0.98-0.44,0.98-0.98c0-0.54-0.44-0.98-0.98-0.98h0
		C169.72,127.6,169.28,128.04,169.28,128.58 M162.59,139.6c-0.8-0.04-1.23-0.17-1.52-0.28c-0.38-0.15-0.65-0.33-0.94-0.61
		s-0.46-0.56-0.61-0.94c-0.11-0.29-0.24-0.72-0.28-1.52c-0.04-0.86-0.05-1.12-0.05-3.3s0.01-2.44,0.05-3.3
		c0.04-0.8,0.17-1.23,0.28-1.52c0.15-0.38,0.33-0.65,0.61-0.94s0.56-0.46,0.94-0.61c0.29-0.11,0.72-0.24,1.52-0.28
		c0.86-0.04,1.12-0.05,3.3-0.05s2.44,0.01,3.3,0.05c0.8,0.04,1.23,0.17,1.52,0.28c0.38,0.15,0.65,0.33,0.94,0.61
		c0.29,0.29,0.46,0.56,0.61,0.94c0.11,0.29,0.24,0.72,0.28,1.52c0.04,0.86,0.05,1.12,0.05,3.3c0,2.18-0.01,2.44-0.05,3.3
		c-0.04,0.8-0.17,1.23-0.28,1.52c-0.15,0.38-0.33,0.65-0.61,0.94c-0.29,0.29-0.56,0.46-0.94,0.61c-0.29,0.11-0.72,0.24-1.52,0.28
		c-0.86,0.04-1.12,0.05-3.3,0.05C163.71,139.64,163.45,139.63,162.59,139.6 M162.53,124.82c-0.87,0.04-1.46,0.18-1.98,0.38
		c-0.54,0.21-0.99,0.49-1.45,0.94s-0.73,0.91-0.94,1.45c-0.2,0.52-0.34,1.11-0.38,1.98c-0.04,0.87-0.05,1.15-0.05,3.37
		c0,2.22,0.01,2.5,0.05,3.37c0.04,0.87,0.18,1.46,0.38,1.98c0.21,0.54,0.49,0.99,0.94,1.45s0.91,0.73,1.45,0.94
		c0.52,0.2,1.11,0.34,1.98,0.38c0.87,0.04,1.15,0.05,3.37,0.05c2.22,0,2.5-0.01,3.37-0.05c0.87-0.04,1.46-0.18,1.98-0.38
		c0.54-0.21,0.99-0.49,1.45-0.94s0.73-0.91,0.94-1.45c0.2-0.52,0.34-1.11,0.38-1.98c0.04-0.87,0.05-1.15,0.05-3.37
		c0-2.22-0.01-2.5-0.05-3.37c-0.04-0.87-0.18-1.46-0.38-1.98c-0.21-0.54-0.49-0.99-0.94-1.45s-0.91-0.73-1.45-0.94
		c-0.52-0.2-1.11-0.34-1.98-0.38c-0.87-0.04-1.15-0.05-3.37-0.05S163.4,124.78,162.53,124.82"/>
</g>
</svg>
