<?xml version="1.0" encoding="utf-8"?>
<!-- Generator: Adobe Illustrator 18.1.1, SVG Export Plug-In . SVG Version: 6.00 Build 0)  -->
<svg version="1.1" id="Слой_1" xmlns="http://www.w3.org/2000/svg" xmlns:xlink="http://www.w3.org/1999/xlink" x="0px" y="0px"
	 viewBox="370.66 -7 48 48" enable-background="new 370.66 -7 48 48" xml:space="preserve">
<rect x="370.66" y="-7" fill="none" width="48" height="48"/>
<g>
	<path fill="#255372" d="M403.8,2.05c1.67,0,1.86,2.11,1.86,3.02v23.87c0,0.91-0.18,3.02-1.85,3.02c-0.6,0-1.32-0.24-2.08-0.69
		l-20.19-11.93c-1.18-0.7-1.86-1.55-1.86-2.33s0.68-1.63,1.86-2.33l20.19-11.93C402.48,2.29,403.2,2.05,403.8,2.05L403.8,2.05
		 M403.8,0c-0.93,0-1.98,0.31-3.09,0.96L380.52,12.9c-3.82,2.26-3.82,5.95,0,8.21l20.19,11.93c1.11,0.65,2.15,0.96,3.09,0.96
		c2.28,0,3.86-1.86,3.86-5.07V5.07C407.66,1.86,406.08,0,403.8,0L403.8,0z"/>
	<path fill="#92A9B9" d="M403.8,2.05c1.67,0,1.86,2.11,1.86,3.02v23.87c0,0.91-0.18,3.02-1.85,3.02c-0.6,0-1.32-0.24-2.08-0.69
		l-20.19-11.93c-1.18-0.7-1.86-1.55-1.86-2.33s0.68-1.63,1.86-2.33l20.19-11.93C402.48,2.29,403.2,2.05,403.8,2.05L403.8,2.05"/>
</g>
</svg>
