<?xml version="1.0" encoding="utf-8"?>
<!-- Generator: Adobe Illustrator 18.1.1, SVG Export Plug-In . SVG Version: 6.00 Build 0)  -->
<svg version="1.1" id="Слой_1" xmlns="http://www.w3.org/2000/svg" xmlns:xlink="http://www.w3.org/1999/xlink" x="0px" y="0px"
	 viewBox="113.17 5 24 24" enable-background="new 113.17 5 24 24" xml:space="preserve">
<rect x="113.17" y="5" fill="none" width="24" height="24"/>
<path d="M133.17,10h-16c-1.1,0-2,0.9-2,2v10c0,1.1,0.9,2,2,2h16c1.1,0,2-0.9,2-2V12C135.17,10.9,134.27,10,133.17,10z M131.43,12
	l-5.71,3.49c-0.33,0.2-0.74,0.2-1.06-0.01L119.28,12H131.43z M117.17,22v-8.99l6.4,4.14c0.97,0.63,2.21,0.64,3.19,0.04l6.41-3.91V22
	H117.17z"/>
</svg>
