<?xml version="1.0" encoding="utf-8"?>
<!-- Generator: Adobe Illustrator 18.1.1, SVG Export Plug-In . SVG Version: 6.00 Build 0)  -->
<svg version="1.1" id="Слой_1" xmlns="http://www.w3.org/2000/svg" xmlns:xlink="http://www.w3.org/1999/xlink" x="0px" y="0px"
	 viewBox="221.17 36.65 24 24" enable-background="new 221.17 36.65 24 24" xml:space="preserve">
<rect x="221.17" y="36.65" fill="none" width="24" height="24"/>
<g>
	<g>
		<path d="M230.65,59.65c-0.27,0-0.55-0.1-0.76-0.31c-0.42-0.41-0.42-1.07,0-1.47l7.2-7.01c1.25-1.22,1.25-3.2,0-4.42l-7.2-7.01
			c-0.42-0.41-0.42-1.07,0-1.47s1.1-0.41,1.51,0l7.2,7.01c2.09,2.03,2.09,5.34,0,7.37l-7.2,7.01
			C231.19,59.54,230.92,59.65,230.65,59.65z"/>
	</g>
	<g>
		<path d="M227.24,56.33c-0.27,0-0.55-0.1-0.76-0.31c-0.42-0.41-0.42-1.07,0-1.47l5.3-5.16c0.2-0.2,0.31-0.46,0.31-0.74
			s-0.11-0.54-0.31-0.74l-5.3-5.16c-0.42-0.41-0.42-1.07,0-1.47c0.42-0.41,1.1-0.41,1.51,0l5.3,5.16c1.25,1.22,1.25,3.2,0,4.42
			l-5.3,5.16C227.79,56.22,227.51,56.33,227.24,56.33z"/>
	</g>
</g>
</svg>
