<?xml version="1.0" encoding="utf-8"?>
<!-- Generator: Adobe Illustrator 18.1.1, SVG Export Plug-In . SVG Version: 6.00 Build 0)  -->
<svg version="1.1" id="Слой_1" xmlns="http://www.w3.org/2000/svg" xmlns:xlink="http://www.w3.org/1999/xlink" x="0px" y="0px"
	 viewBox="71.67 5 24 24" enable-background="new 71.67 5 24 24" xml:space="preserve">
<rect x="71.67" y="5" fill="none" width="24" height="24"/>
<path d="M83.67,17c2.76,0,5-2.24,5-5s-2.24-5-5-5c-2.76,0-5,2.24-5,5S80.91,17,83.67,17z M83.67,9c1.66,0,3,1.34,3,3s-1.34,3-3,3
	c-1.66,0-3-1.34-3-3S82.01,9,83.67,9z M89.67,17h-0.35c-0.46,0-0.9,0.16-1.26,0.44C86.8,18.46,85.28,19,83.67,19
	s-3.13-0.54-4.39-1.56c-0.36-0.29-0.8-0.44-1.26-0.44h-0.35c-2.21,0-4,1.79-4,4v2c0,2.21,1.79,4,4,4h12c2.21,0,4-1.79,4-4v-2
	C93.67,18.79,91.87,17,89.67,17z M91.67,23c0,1.1-0.9,2-2,2h-12c-1.1,0-2-0.9-2-2v-2c0-1.1,0.9-2,2-2h0.35c1.55,1.25,3.51,2,5.65,2
	c2.14,0,4.11-0.75,5.65-2h0.35c1.1,0,2,0.9,2,2V23z"/>
</svg>
