<?xml version="1.0" encoding="utf-8"?>
<!-- Generator: Adobe Illustrator 18.1.1, SVG Export Plug-In . SVG Version: 6.00 Build 0)  -->
<svg version="1.1" id="Слой_1" xmlns="http://www.w3.org/2000/svg" xmlns:xlink="http://www.w3.org/1999/xlink" x="0px" y="0px"
	 viewBox="59.67 176.45 24 24" enable-background="new 59.67 176.45 24 24" xml:space="preserve">
<rect x="59.67" y="176.45" fill="none" width="24" height="24"/>
<g>
	<path d="M77.67,178.45c2.21,0,4,1.79,4,4v7v7.37c-0.04-0.06-0.08-0.11-0.13-0.17c-1.43-1.93-2.37-3.2-3.87-3.2h-12
		c-2.21,0-4-1.79-4-4v-7c0-2.21,1.79-4,4-4H77.67 M77.67,176.45h-12c-3.31,0-6,2.69-6,6v7c0,3.31,2.69,6,6,6h12
		c0.84,0,2.69,3.28,4.12,4.68c0.22,0.22,0.5,0.32,0.77,0.32c0.57,0,1.12-0.44,1.12-1.11v-9.89v-7
		C83.67,179.14,80.98,176.45,77.67,176.45L77.67,176.45z"/>
</g>
<g>
	<circle cx="66.67" cy="185.95" r="1.5"/>
	<circle cx="71.67" cy="185.95" r="1.5"/>
	<circle cx="76.67" cy="185.95" r="1.5"/>
</g>
</svg>
