<?xml version="1.0" encoding="utf-8"?>
<!-- Generator: Adobe Illustrator 18.1.1, SVG Export Plug-In . SVG Version: 6.00 Build 0)  -->
<svg version="1.1" id="Слой_1" xmlns="http://www.w3.org/2000/svg" xmlns:xlink="http://www.w3.org/1999/xlink" x="0px" y="0px"
	 viewBox="93.33 176.45 24 24" enable-background="new 93.33 176.45 24 24" xml:space="preserve">
<rect x="93.33" y="176.45" fill="none" width="24" height="24"/>
<path d="M105.33,178.45c5.51,0,10,4.49,10,10s-4.49,10-10,10s-10-4.49-10-10S99.82,178.45,105.33,178.45 M105.33,176.45
	c-6.63,0-12,5.37-12,12s5.37,12,12,12s12-5.37,12-12S111.96,176.45,105.33,176.45L105.33,176.45z M105.88,189.96l5.04-3.26
	c0.46-0.3,0.6-0.92,0.3-1.38s-0.92-0.6-1.38-0.3l-5.04,3.26c-0.46,0.3-0.6,0.92-0.3,1.38c0.19,0.3,0.51,0.46,0.84,0.46
	C105.52,190.13,105.71,190.07,105.88,189.96z"/>
</svg>
