<?xml version="1.0" encoding="utf-8"?>
<!-- Generator: Adobe Illustrator 18.1.1, SVG Export Plug-In . SVG Version: 6.00 Build 0)  -->
<svg version="1.1" id="Слой_1" xmlns="http://www.w3.org/2000/svg" xmlns:xlink="http://www.w3.org/1999/xlink" x="0px" y="0px"
	 viewBox="-3 176.45 24 24" enable-background="new -3 176.45 24 24" xml:space="preserve">
<rect x="-3" y="176.45" fill="none" width="24" height="24"/>
<path d="M17,178.45v20H1v-20H17 M17,176.45H1c-1.1,0-2,0.9-2,2v20c0,1.1,0.9,2,2,2h16c1.1,0,2-0.9,2-2v-20
	C19,177.35,18.1,176.45,17,176.45L17,176.45z M15,182.45c0-0.55-0.45-1-1-1H4c-0.55,0-1,0.45-1,1s0.45,1,1,1h10
	C14.55,183.45,15,183,15,182.45z M15,188.45c0-0.55-0.45-1-1-1H4c-0.55,0-1,0.45-1,1s0.45,1,1,1h10C14.55,189.45,15,189,15,188.45z
	 M15,194.45c0-0.55-0.45-1-1-1H4c-0.55,0-1,0.45-1,1s0.45,1,1,1h10C14.55,195.45,15,195,15,194.45z"/>
</svg>
