<?xml version="1.0" encoding="utf-8"?>
<!-- Generator: Adobe Illustrator 18.1.1, SVG Export Plug-In . SVG Version: 6.00 Build 0)  -->
<svg version="1.1" id="Слой_1" xmlns="http://www.w3.org/2000/svg" xmlns:xlink="http://www.w3.org/1999/xlink" x="0px" y="0px"
	 viewBox="128.17 176.45 24 24" enable-background="new 128.17 176.45 24 24" xml:space="preserve">
<rect x="128.17" y="176.45" fill="none" width="24" height="24"/>
<g>
	<g>
		<path d="M139.58,178.46c3.01,0,6.13,2.01,6.13,5.38C145.71,180.47,142.59,178.46,139.58,178.46 M145.71,183.87
			c0,0.64-0.06,1.19-0.18,1.66C145.64,185.06,145.71,184.51,145.71,183.87 M139.58,176.46c-5.22,0-8.33,3.3-8.33,8.84
			c0,1.1,0.9,2,2,2s2-0.9,2-2c0-4.26,2.19-4.84,4.33-4.84c2.03,0,4.13,1.27,4.13,3.38c0,2.17-0.74,2.62-2.21,3.5
			c-1.52,0.91-3.82,2.29-3.88,6.07c-0.02,1.1,0.86,2.01,1.97,2.03c0.01,0,0.02,0,0.03,0c1.09,0,1.98-0.87,2-1.97
			c0.03-1.56,0.59-1.89,1.94-2.7c1.65-0.99,4.15-2.49,4.15-6.93C147.71,179.22,143.58,176.46,139.58,176.46L139.58,176.46z"/>
	</g>
</g>
<g>
	<path d="M139.48,196.45c-1.1,0-2,0.9-2,2s0.9,2,2,2s2-0.9,2-2S140.58,196.45,139.48,196.45L139.48,196.45z"/>
</g>
</svg>
