<?xml version="1.0" encoding="utf-8"?>
<!-- Generator: Adobe Illustrator 18.1.1, SVG Export Plug-In . SVG Version: 6.00 Build 0)  -->
<svg version="1.1" id="Слой_1" xmlns="http://www.w3.org/2000/svg" xmlns:xlink="http://www.w3.org/1999/xlink" x="0px" y="0px"
	 viewBox="162.67 176.45 24 24" enable-background="new 162.67 176.45 24 24" xml:space="preserve">
<rect x="162.67" y="176.45" fill="none" width="24" height="24"/>
<path d="M174.67,178.45c5.51,0,10,4.49,10,10s-4.49,10-10,10s-10-4.49-10-10S169.15,178.45,174.67,178.45 M174.67,176.45
	c-6.63,0-12,5.37-12,12s5.37,12,12,12c6.63,0,12-5.37,12-12S181.29,176.45,174.67,176.45L174.67,176.45z M170.17,183.95
	c-0.83,0-1.5,0.67-1.5,1.5s0.67,1.5,1.5,1.5c0.83,0,1.5-0.67,1.5-1.5S171,183.95,170.17,183.95z M179.17,183.95
	c-0.83,0-1.5,0.67-1.5,1.5s0.67,1.5,1.5,1.5c0.83,0,1.5-0.67,1.5-1.5S180,183.95,179.17,183.95z M171.2,194.2
	c0.71-1.23,2.04-2,3.47-2s2.75,0.77,3.46,2c0.28,0.48,0.89,0.64,1.37,0.36c0.48-0.28,0.64-0.89,0.36-1.37c-1.07-1.85-3.06-3-5.2-3
	c-2.13,0-4.13,1.15-5.2,3c-0.28,0.48-0.11,1.09,0.36,1.37c0.16,0.09,0.33,0.13,0.5,0.13C170.68,194.7,171.02,194.52,171.2,194.2z"/>
</svg>
