<?xml version="1.0" encoding="utf-8"?>
<!-- Generator: Adobe Illustrator 18.1.1, SVG Export Plug-In . SVG Version: 6.00 Build 0)  -->
<svg version="1.1" id="Слой_1" xmlns="http://www.w3.org/2000/svg" xmlns:xlink="http://www.w3.org/1999/xlink" x="0px" y="0px"
	 viewBox="27.67 176.45 24 24" enable-background="new 27.67 176.45 24 24" xml:space="preserve">
<rect x="27.67" y="176.45" fill="none" width="24" height="24"/>
<path d="M49.67,177.59c-0.28,0-0.57,0.06-0.84,0.19l-11.33,5.29c-0.27,0.12-0.55,0.19-0.84,0.19h0c-0.28,0-0.55-0.06-0.81-0.17
	l-5.36-2.38c-0.27-0.12-0.54-0.17-0.81-0.17c-1.05,0-2,0.85-2,2v11.85c0,1.15,0.94,2,2,2c0.27,0,0.54-0.06,0.81-0.17l5.36-2.38
	c0.02-0.01,0.04-0.01,0.06-0.02c-0.14,0.41-0.23,0.85-0.23,1.31c0,2.21,1.79,4,4,4c1.69,0,3.13-1.04,3.72-2.52l5.44,2.54
	c0.28,0.13,0.57,0.19,0.84,0.19c1.05,0,2-0.85,2-2v-17.73C51.67,178.44,50.72,177.59,49.67,177.59z M35.67,191.79
	c-0.22,0.06-0.43,0.12-0.64,0.21l-5.36,2.38l0-11.85l5.36,2.38c0.21,0.09,0.42,0.15,0.64,0.21V191.79z M39.67,197.11
	c-1.1,0-2-0.9-2-2c0-0.45,0.14-0.79,0.3-1.05l3.59,1.68C41.29,196.54,40.53,197.11,39.67,197.11z M38.34,192.03
	c-0.21-0.1-0.44-0.17-0.67-0.23v-6.69c0.23-0.06,0.46-0.13,0.67-0.23l11.33-5.29l0,17.72L38.34,192.03z"/>
</svg>
