<?xml version="1.0" encoding="utf-8"?>
<!-- Generator: Adobe Illustrator 18.1.1, SVG Export Plug-In . SVG Version: 6.00 Build 0)  -->
<svg version="1.1" id="Слой_1" xmlns="http://www.w3.org/2000/svg" xmlns:xlink="http://www.w3.org/1999/xlink" x="0px" y="0px"
	 viewBox="-3 41 24 24" enable-background="new -3 41 24 24" xml:space="preserve">
<path fill="#B5BFC8" d="M14.38,54.48l-0.03,0.04l-0.03,0.04L9,61.66l-5.31-7.1l-0.03-0.04l-0.03-0.04C2.58,53.22,2,51.63,2,50
	c0-3.86,3.14-7,7-7c0.07,0,0.14,0,0.21,0c3.73,0.11,6.84,3.36,6.79,7.1C15.98,51.72,15.42,53.23,14.38,54.48z"/>
<rect x="-3" y="41" fill="none" width="24" height="24"/>
<g>
	<path fill="#255372" d="M9.26,41C9.18,41,9.09,41,9,41c-4.97,0-9,4.03-9,9c0,2.19,0.78,4.2,2.09,5.76l5.76,7.69
		c0.29,0.39,0.72,0.58,1.16,0.58c0.43,0,0.87-0.19,1.16-0.58l5.76-7.69c1.28-1.53,2.06-3.49,2.08-5.63
		C18.07,45.29,14.1,41.14,9.26,41z M14.38,54.48l-0.03,0.04l-0.03,0.04L9,61.66l-5.31-7.1l-0.03-0.04l-0.03-0.04
		C2.58,53.22,2,51.63,2,50c0-3.86,3.14-7,7-7c0.07,0,0.14,0,0.21,0c3.73,0.11,6.84,3.36,6.79,7.1
		C15.98,51.72,15.42,53.23,14.38,54.48z"/>
	<path fill="#255372" d="M9,46c-2.21,0-4,1.79-4,4s1.79,4,4,4c2.21,0,4-1.79,4-4S11.21,46,9,46z M9,52c-1.1,0-2-0.9-2-2s0.9-2,2-2
		c1.1,0,2,0.9,2,2S10.1,52,9,52z"/>
</g>
<circle fill="#DCA54D" cx="9" cy="50" r="2"/>
</svg>
