<?xml version="1.0" encoding="utf-8"?>
<!-- Generator: Adobe Illustrator 18.1.1, SVG Export Plug-In . SVG Version: 6.00 Build 0)  -->
<svg version="1.1" id="Слой_1" xmlns="http://www.w3.org/2000/svg" xmlns:xlink="http://www.w3.org/1999/xlink" x="0px" y="0px"
	 viewBox="306.25 -7 48 48" enable-background="new 306.25 -7 48 48" xml:space="preserve">
<rect x="306.25" y="-7" fill="none" width="48" height="48"/>
<g>
	<path fill="#255372" d="M321.11,2.05L321.11,2.05c0.6,0,1.32,0.24,2.08,0.69l20.19,11.93c1.18,0.7,1.86,1.55,1.86,2.33
		s-0.68,1.63-1.86,2.33l-20.19,11.93c-0.76,0.45-1.48,0.69-2.08,0.69c-1.67,0-1.85-2.11-1.85-3.02V5.07
		C319.25,4.16,319.44,2.05,321.11,2.05 M321.11,0c-2.28,0-3.86,1.86-3.86,5.07v23.87c0,3.21,1.58,5.07,3.86,5.07
		c0.93,0,1.98-0.31,3.09-0.96l20.19-11.93c3.82-2.26,3.82-5.95,0-8.21L324.19,0.96C323.09,0.31,322.04,0,321.11,0L321.11,0z"/>
	<path fill="#92A9B9" d="M321.11,2.05L321.11,2.05c0.6,0,1.32,0.24,2.08,0.69l20.19,11.93c1.18,0.7,1.86,1.55,1.86,2.33
		s-0.68,1.63-1.86,2.33l-20.19,11.93c-0.76,0.45-1.48,0.69-2.08,0.69c-1.67,0-1.85-2.11-1.85-3.02V5.07
		C319.25,4.16,319.44,2.05,321.11,2.05"/>
</g>
</svg>
