<?xml version="1.0" encoding="utf-8"?>
<!-- Generator: Adobe Illustrator 18.1.1, SVG Export Plug-In . SVG Version: 6.00 Build 0)  -->
<svg version="1.1" id="Слой_1" xmlns="http://www.w3.org/2000/svg" xmlns:xlink="http://www.w3.org/1999/xlink" x="0px" y="0px"
	 viewBox="71.67 41 24 24" enable-background="new 71.67 41 24 24" xml:space="preserve">
<rect x="71.67" y="41" fill="none" width="24" height="24"/>
<path d="M88.67,49c-0.26,0-0.51-0.09-0.71-0.28l-3.63-3.5c-0.39-0.38-1.03-0.38-1.43,0l-3.53,3.41c-0.39,0.38-1.02,0.38-1.41,0
	c-0.39-0.38-0.39-0.99,0-1.36l3.53-3.41c1.17-1.13,3.08-1.13,4.26,0l3.63,3.5c0.39,0.38,0.39,0.99,0,1.36
	C89.18,48.91,88.92,49,88.67,49z"/>
<path d="M78.67,57c0.26,0,0.51,0.09,0.71,0.28l3.63,3.5c0.39,0.38,1.03,0.38,1.43,0l3.53-3.41c0.39-0.38,1.02-0.38,1.41,0
	c0.39,0.38,0.39,0.99,0,1.36l-3.53,3.41c-1.17,1.13-3.08,1.13-4.26,0l-3.63-3.5c-0.39-0.38-0.39-0.99,0-1.36
	C78.15,57.09,78.41,57,78.67,57z"/>
<g>
	<path d="M88.67,54h-10c-0.55,0-1-0.45-1-1s0.45-1,1-1h10c0.55,0,1,0.45,1,1S89.22,54,88.67,54z"/>
</g>
</svg>
