<?xml version="1.0" encoding="utf-8"?>
<!-- Generator: Adobe Illustrator 18.1.1, SVG Export Plug-In . SVG Version: 6.00 Build 0)  -->
<svg version="1.1" id="Слой_1" xmlns="http://www.w3.org/2000/svg" xmlns:xlink="http://www.w3.org/1999/xlink" x="0px" y="0px"
	 viewBox="312.25 59 36 36" enable-background="new 312.25 59 36 36" xml:space="preserve">
<g>
	<path fill="white" d="M340.25,85.99c0-0.26-0.09-0.52-0.28-0.72c-0.37-0.4-0.97-0.4-1.35,0l-6.37,6.79c-1.11,1.18-2.91,1.18-4.02,0l-6.37-6.79
		c-0.37-0.4-0.97-0.4-1.35,0s-0.37,1.04,0,1.44l6.37,6.79c1.85,1.97,4.86,1.97,6.71,0l6.37-6.79
		C340.16,86.51,340.25,86.25,340.25,85.99z"/>
</g>
<rect x="312.25" y="59" fill="none" width="36" height="36"/>
<path fill="white" d="M331.08,59h-1.67c-4.49,0-8.17,3.67-8.17,8.17v9.67c0,4.49,3.67,8.17,8.17,8.17h1.67c4.49,0,8.17-3.67,8.17-8.17v-9.67
	C339.25,62.67,335.58,59,331.08,59z M337.25,76.83c0,3.4-2.77,6.17-6.17,6.17h-1.67c-3.4,0-6.17-2.77-6.17-6.17v-9.67
	c0-3.34,2.68-6.07,6-6.16V68c0,0.55,0.45,1,1,1s1-0.45,1-1v-6.99c3.32,0.09,6,2.81,6,6.16V76.83z"/>
</svg>
