<?xml version="1.0" encoding="utf-8"?>
<!-- Generator: Adobe Illustrator 18.1.1, SVG Export Plug-In . SVG Version: 6.00 Build 0)  -->
<svg version="1.1" id="Слой_1" xmlns="http://www.w3.org/2000/svg" xmlns:xlink="http://www.w3.org/1999/xlink" x="0px" y="0px"
	 viewBox="35.33 5 24 24" enable-background="new 35.33 5 24 24" xml:space="preserve">
<rect x="35.33" y="5" fill="none" width="24" height="24"/>
<path fill="#AF8373" d="M58.05,26.33l-7.16-7.16c1.09-1.38,1.74-3.13,1.74-5.02c0-4.5-3.65-8.15-8.15-8.15c-4.5,0-8.15,3.65-8.15,8.15
	s3.65,8.15,8.15,8.15c1.9,0,3.64-0.65,5.02-1.74l7.16,7.16c0.38,0.38,1,0.38,1.38,0C58.43,27.33,58.43,26.71,58.05,26.33z
	 M44.48,20.26c-3.37,0-6.11-2.74-6.11-6.11s2.74-6.11,6.11-6.11c3.37,0,6.11,2.74,6.11,6.11S47.86,20.26,44.48,20.26z"/>
</svg>
