<?xml version="1.0" encoding="utf-8"?>
<!-- Generator: Adobe Illustrator 18.1.1, SVG Export Plug-In . SVG Version: 6.00 Build 0)  -->
<svg version="1.1" id="Слой_1" xmlns="http://www.w3.org/2000/svg" xmlns:xlink="http://www.w3.org/1999/xlink" x="0px" y="0px"
	 viewBox="-3 5 24 24" enable-background="new -3 5 24 24" xml:space="preserve">
<path d="M15.86,15.86H14.6c-0.15-0.73-0.44-1.41-0.84-2l0.89-0.89c0.45-0.45,0.45-1.17,0-1.62c-0.45-0.45-1.17-0.45-1.62,0
	l-0.89,0.89c-0.6-0.4-1.28-0.69-2-0.84v-1.26C10.14,9.51,9.63,9,9,9c-0.63,0-1.14,0.51-1.14,1.14v1.26c-0.73,0.15-1.41,0.44-2,0.84
	l-0.89-0.89c-0.45-0.45-1.17-0.45-1.62,0c-0.45,0.45-0.45,1.17,0,1.62l0.89,0.89c-0.4,0.6-0.69,1.28-0.84,2H2.14
	C1.51,15.86,1,16.37,1,17s0.51,1.14,1.14,1.14H3.4c0.15,0.73,0.44,1.41,0.84,2l-0.89,0.89c-0.45,0.45-0.45,1.17,0,1.62
	c0.45,0.45,1.17,0.45,1.62,0l0.89-0.89c0.6,0.4,1.28,0.69,2,0.84v1.26C7.86,24.49,8.37,25,9,25c0.63,0,1.14-0.51,1.14-1.14V22.6
	c0.73-0.15,1.41-0.44,2-0.84l0.89,0.89c0.45,0.45,1.17,0.45,1.62,0s0.45-1.17,0-1.62l-0.89-0.89c0.4-0.6,0.69-1.28,0.84-2h1.26
	c0.63,0,1.14-0.51,1.14-1.14S16.49,15.86,15.86,15.86z M9,20.43c-1.89,0-3.43-1.54-3.43-3.43c0-1.89,1.53-3.43,3.43-3.43
	c1.89,0,3.43,1.53,3.43,3.43C12.43,18.89,10.89,20.43,9,20.43z"/>
<rect x="-3" y="5" fill="none" width="24" height="24"/>
</svg>
