<?xml version="1.0" encoding="utf-8"?>
<!-- Generator: Adobe Illustrator 18.1.1, SVG Export Plug-In . SVG Version: 6.00 Build 0)  -->
<svg version="1.1" id="Слой_1" xmlns="http://www.w3.org/2000/svg" xmlns:xlink="http://www.w3.org/1999/xlink" x="0px" y="0px"
	 viewBox="591.33 -4.25 120 120" enable-background="new 591.33 -4.25 120 120" xml:space="preserve">
<path fill="#DCA54D" d="M626.83,21.25c-8.55,0-15.5,6.95-15.5,15.5s6.95,15.5,15.5,15.5s15.5-6.95,15.5-15.5
	S635.38,21.25,626.83,21.25z M629.33,45.25c0,1.38-1.12,2.5-2.5,2.5s-2.5-1.12-2.5-2.5v-8c0-1.38,1.12-2.5,2.5-2.5s2.5,1.12,2.5,2.5
	V45.25z M626.83,30.75c-1.38,0-2.5-1.12-2.5-2.5s1.12-2.5,2.5-2.5s2.5,1.12,2.5,2.5S628.21,30.75,626.83,30.75z"/>
<g>
	<path fill="#FFFFFF" d="M707.33,4.75h-4.12c-2.2-2.42-5.35-3.95-8.88-3.95h-1h-35c-3.01,0-5.63,1.66-6.99,4.12
		c-1.36-2.47-3.99-4.14-7.01-4.14h-35c-0.17,0-0.34,0.02-0.52,0.03h-0.48c-3.52,0-6.68,1.53-8.88,3.95h-4.12c-2.21,0-4,1.79-4,4v103
		c0,2.21,1.79,4,4,4h55h2h55c2.21,0,4-1.79,4-4v-103C711.33,6.54,709.54,4.75,707.33,4.75z M704.33,12.8v88.18
		c-0.16-0.22-0.33-0.43-0.52-0.62c-0.7-0.72-1.55-1.19-2.48-1.42V8.8c0-1.49-0.41-2.88-1.12-4.07
		C702.7,6.55,704.33,9.49,704.33,12.8z M602.39,100.78h47.94v2.97h-47c-0.55,0-1,0.45-1,1s0.45,1,1,1h47v3h-51.92
		c-0.03-3.24,0.62-5.72,1.87-7C600.87,101.16,601.58,100.84,602.39,100.78z M644.33,2.8c3.31,0,6,2.69,6,6v3.95v86.03h-47v-90
		c0-3.13,2.42-5.71,5.49-5.97H644.33z M652.33,105.75h47c0.55,0,1-0.45,1-1s-0.45-1-1-1h-47v-2.97v-0.03H700
		c0.93,0,1.73,0.34,2.38,1c1.25,1.28,1.9,3.76,1.87,7h-51.92V105.75z M658.83,2.8h8v26.76l-3.11-1.55l-0.89-0.45l-0.89,0.45
		l-3.11,1.55V2.8z M656.83,3v29.8l6-3l6,3v-30h24.5c3.31,0,6,2.69,6,6v89.95h-47v-86V8.8C652.33,6.01,654.25,3.67,656.83,3z
		 M602.43,4.75c-0.69,1.18-1.09,2.56-1.09,4.03v90.16c-0.93,0.24-1.78,0.7-2.48,1.42c-0.19,0.19-0.36,0.4-0.52,0.62V12.8
		C598.33,9.5,599.95,6.57,602.43,4.75z M650.33,113.75h-55c-1.1,0-2-0.9-2-2v-103c0-1.1,0.9-2,2-2h2.65
		c-1.04,1.78-1.65,3.84-1.65,6.05v97.95h54V113.75z M709.33,111.75c0,1.1-0.9,2-2,2h-55v-3h54V12.8c0-2.21-0.61-4.27-1.65-6.05h2.65
		c1.1,0,2,0.9,2,2V111.75z"/>
	<path fill="#FFFFFF" d="M610.33,66.13h33c0.55,0,1-0.45,1-1s-0.45-1-1-1h-33c-0.55,0-1,0.45-1,1S609.78,66.13,610.33,66.13z"/>
	<path fill="#FFFFFF" d="M610.33,73.88h33c0.55,0,1-0.45,1-1s-0.45-1-1-1h-33c-0.55,0-1,0.45-1,1S609.78,73.88,610.33,73.88z"/>
	<path fill="#FFFFFF" d="M610.33,81.88h22c0.55,0,1-0.45,1-1s-0.45-1-1-1h-22c-0.55,0-1,0.45-1,1S609.78,81.88,610.33,81.88z"/>
	<path fill="#FFFFFF" d="M610.33,89.88h22c0.55,0,1-0.45,1-1s-0.45-1-1-1h-22c-0.55,0-1,0.45-1,1S609.78,89.88,610.33,89.88z"/>
	<path fill="#FFFFFF" d="M659.33,66.13h33c0.55,0,1-0.45,1-1s-0.45-1-1-1h-33c-0.55,0-1,0.45-1,1S658.78,66.13,659.33,66.13z"/>
	<path fill="#FFFFFF" d="M659.33,73.88h33c0.55,0,1-0.45,1-1s-0.45-1-1-1h-33c-0.55,0-1,0.45-1,1S658.78,73.88,659.33,73.88z"/>
	<path fill="#FFFFFF" d="M692.33,79.88h-22c-0.55,0-1,0.45-1,1s0.45,1,1,1h22c0.55,0,1-0.45,1-1S692.89,79.88,692.33,79.88z"/>
	<path fill="#FFFFFF" d="M692.33,87.88h-22c-0.55,0-1,0.45-1,1s0.45,1,1,1h22c0.55,0,1-0.45,1-1S692.89,87.88,692.33,87.88z"/>
	<path fill="#FFFFFF" d="M626.83,53.25c9.11,0,16.5-7.39,16.5-16.5s-7.39-16.5-16.5-16.5c-9.11,0-16.5,7.39-16.5,16.5
		S617.72,53.25,626.83,53.25z M626.83,22.25c8,0,14.5,6.5,14.5,14.5s-6.5,14.5-14.5,14.5c-8,0-14.5-6.5-14.5-14.5
		S618.84,22.25,626.83,22.25z"/>
	<path fill="#FFFFFF" d="M626.83,48.75c1.92,0,3.5-1.58,3.5-3.5v-8c0-1.92-1.58-3.5-3.5-3.5s-3.5,1.58-3.5,3.5v8
		C623.33,47.17,624.91,48.75,626.83,48.75z M625.33,37.25c0-0.83,0.67-1.5,1.5-1.5s1.5,0.67,1.5,1.5v8c0,0.83-0.67,1.5-1.5,1.5
		s-1.5-0.67-1.5-1.5V37.25z"/>
	<path fill="#FFFFFF" d="M626.83,31.75c1.93,0,3.5-1.57,3.5-3.5s-1.57-3.5-3.5-3.5s-3.5,1.57-3.5,3.5S624.9,31.75,626.83,31.75z
		 M626.83,26.75c0.83,0,1.5,0.67,1.5,1.5s-0.67,1.5-1.5,1.5s-1.5-0.67-1.5-1.5S626.01,26.75,626.83,26.75z"/>
</g>
</svg>
