<?xml version="1.0" encoding="utf-8"?>
<!-- Generator: Adobe Illustrator 18.1.1, SVG Export Plug-In . SVG Version: 6.00 Build 0)  -->
<svg version="1.1" id="Слой_1" xmlns="http://www.w3.org/2000/svg" xmlns:xlink="http://www.w3.org/1999/xlink" x="0px" y="0px"
	 viewBox="186.17 120.9 24 24" enable-background="new 186.17 120.9 24 24" xml:space="preserve">
<rect x="186.17" y="120.9" fill="none" width="24" height="24"/>
<g>
	<linearGradient id="SVGID_1_" gradientUnits="userSpaceOnUse" x1="198.1666" y1="121.1846" x2="198.1666" y2="145.0971">
		<stop  offset="0" style="stop-color:#40BCE7"/>
		<stop  offset="1" style="stop-color:#20A6DC"/>
	</linearGradient>
	<circle fill="url(#SVGID_1_)" cx="198.17" cy="133.18" r="12"/>
	<g>
		<path fill="#FFFFFF" d="M204.01,128.09l-2.14,10.81c0,0-0.3,0.75-1.12,0.39l-4.95-3.79l-1.8-0.87l-3.03-1.02
			c0,0-0.46-0.16-0.51-0.52c-0.04-0.36,0.52-0.55,0.52-0.55l12.04-4.72C203.02,127.8,204.01,127.37,204.01,128.09z"/>
		<path fill="#D2E4F0" d="M195.41,138.77c0,0-0.14-0.01-0.32-0.58c-0.18-0.57-1.09-3.57-1.09-3.57l7.27-4.62c0,0,0.42-0.25,0.4,0
			c0,0,0.07,0.04-0.15,0.25c-0.22,0.21-5.71,5.14-5.71,5.14"/>
		<path fill="#B5CFE4" d="M197.69,136.95l-1.96,1.78c0,0-0.15,0.12-0.32,0.04l0.37-3.31"/>
	</g>
</g>
</svg>
