<?xml version="1.0" encoding="utf-8"?>
<!-- Generator: Adobe Illustrator 18.1.1, SVG Export Plug-In . SVG Version: 6.00 Build 0)  -->
<svg version="1.1" id="Слой_1" xmlns="http://www.w3.org/2000/svg" xmlns:xlink="http://www.w3.org/1999/xlink" x="0px" y="0px"
	 viewBox="35.33 41 24 24" enable-background="new 35.33 41 24 24" xml:space="preserve">
<rect x="35.33" y="41" fill="none" width="24" height="24"/>
<path d="M52.33,55c-0.26,0-0.51-0.09-0.71-0.28L48,51.21c-0.39-0.38-1.03-0.38-1.43,0l-3.53,3.41c-0.39,0.38-1.02,0.38-1.41,0
	c-0.39-0.38-0.39-0.99,0-1.36l3.53-3.41c1.17-1.13,3.08-1.13,4.26,0l3.63,3.5c0.39,0.38,0.39,0.99,0,1.36
	C52.85,54.91,52.59,55,52.33,55z M47.33,43c-5.51,0-10,4.49-10,10s4.49,10,10,10s10-4.49,10-10S52.85,43,47.33,43 M47.33,41
	c6.63,0,12,5.37,12,12s-5.37,12-12,12c-6.63,0-12-5.37-12-12S40.71,41,47.33,41L47.33,41z"/>
</svg>
