<?xml version="1.0" encoding="utf-8"?>
<!-- Generator: Adobe Illustrator 18.1.1, SVG Export Plug-In . SVG Version: 6.00 Build 0)  -->
<svg version="1.1" id="Слой_1" xmlns="http://www.w3.org/2000/svg" xmlns:xlink="http://www.w3.org/1999/xlink" x="0px" y="0px"
	 viewBox="89.17 120.9 24 24" enable-background="new 89.17 120.9 24 24" xml:space="preserve">
<rect x="89.17" y="120.9" fill="none" width="24" height="24"/>
<g>
	<path fill-rule="evenodd" clip-rule="evenodd" fill="#4D75A2" d="M108.78,121.9H93.56c-1.87,0-3.39,1.52-3.39,3.39v15.22
		c0,1.87,1.52,3.39,3.39,3.39h15.22c1.87,0,3.39-1.52,3.39-3.39v-15.22C112.17,123.41,110.65,121.9,108.78,121.9z"/>
	<path fill-rule="evenodd" clip-rule="evenodd" fill="#FFFFFF" d="M108.23,137.38h-1.85c-0.6,0-0.68-0.44-1.79-1.5
		c-0.93-0.92-1.33-0.99-1.56-0.99c-0.2,0-0.34,0.15-0.34,0.5v1.41c0,0.42-0.24,0.58-1.22,0.58c-1.61,0-3.4-0.99-4.76-2.83
		c-2.03-2.73-2.54-4.77-2.54-5.21c0-0.24,0.18-0.4,0.42-0.4h1.65c0.43,0,0.59,0.13,0.74,0.58c0.76,2.22,2.1,4.17,2.67,4.17
		c0.21,0,0.24-0.18,0.24-0.63v-2.25c0-1.09-0.62-1.18-0.62-1.59c0-0.16,0.13-0.28,0.33-0.28h2.64c0.35,0,0.4,0.13,0.4,0.55v3.06
		c0,0.35,0.07,0.48,0.23,0.48c0.19,0,0.37-0.12,0.72-0.5c1.08-1.2,1.98-3.1,1.98-3.1c0.11-0.24,0.25-0.4,0.63-0.4
		c0.55,0,1.65,0,1.65,0c0.33,0,0.47,0.18,0.4,0.49c-0.19,0.88-2.09,3.56-2.09,3.56c-0.18,0.28-0.25,0.43,0,0.69
		c0.18,0.23,0.73,0.72,1.07,1.17c0.83,0.88,1.37,1.62,1.37,2.04C108.59,137.3,108.42,137.38,108.23,137.38z"/>
</g>
</svg>
