<?xml version="1.0" encoding="utf-8"?>
<!-- Generator: Adobe Illustrator 18.1.1, SVG Export Plug-In . SVG Version: 6.00 Build 0)  -->
<svg version="1.1" id="Слой_1" xmlns="http://www.w3.org/2000/svg" xmlns:xlink="http://www.w3.org/1999/xlink" x="0px" y="0px"
	 viewBox="0 0 32 32" enable-background="new 0 0 32 32" xml:space="preserve">
<rect x="0" fill="none" width="32" height="32"/>
<g>
	<path fill="#3A1B11" d="M19.98,23.15c-0.06,0-0.13-0.01-0.19-0.04l-2-0.8c-0.13-0.05-0.24-0.16-0.29-0.3
		c-0.05-0.14-0.04-0.29,0.04-0.41L28.14,2.67c0.41-0.74,1.44-1.02,2.17-0.58s0.98,1.36,0.57,2.11L20.42,22.89
		C20.33,23.05,20.16,23.15,19.98,23.15z M18.7,21.6l1.06,0.42L30,3.71c0.15-0.27,0.06-0.6-0.2-0.76c-0.27-0.16-0.64-0.06-0.79,0.21
		L18.7,21.6z"/>
</g>
<path fill="#3A1B11" d="M24.49,30.02c-0.66-0.12-2.6-1.53-3.64-2.97c-0.61-0.84-0.6-2.86-0.46-3.94c0.06-0.45-0.19-0.89-0.61-1.06
	l-1.48-0.61c-0.12-0.05-0.25-0.08-0.38-0.08c-0.13,0-0.25,0.02-0.37,0.07c-3.75,1.49-6.35,4.28-6.48,6.96
	c-0.04,0.92,0.25,1.73,0.84,2.35C13.05,31.94,14.85,32,15.2,32h9.11c0.52,0,0.95-0.39,1-0.91S25,30.11,24.49,30.02z M20.35,31
	l-0.08-0.06c-1.11-0.87-2.17-1.69-1.8-3.2c0.06-0.27-0.1-0.54-0.37-0.6c-0.27-0.06-0.54,0.1-0.6,0.37c-0.39,1.61,0.39,2.69,1.27,3.5
	c-0.77,0-1.49,0-2.08,0c-0.66-0.47-1.06-1.09-1.18-1.86c-0.19-1.28,0.41-2.52,0.64-2.8c0.17-0.21,0.14-0.53-0.07-0.7
	c-0.21-0.18-0.53-0.14-0.7,0.07c-0.47,0.58-1.07,2.13-0.85,3.58c0.1,0.64,0.36,1.21,0.75,1.71c-0.02,0-0.05,0-0.07,0
	c-0.91,0-3.23-0.4-3.12-2.55c0.1-2.15,2.28-4.67,5.85-6.08l1.48,0.61c0,0-0.44,3.19,0.64,4.67c1.08,1.48,3.19,3.16,4.27,3.36
	C23.16,31,21.73,31,20.35,31z"/>
<path fill="#3A1B11" d="M29.17,23.17c1.1,0,2-0.9,2-2c0-1.1-0.9-2-2-2s-2,0.9-2,2C27.17,22.28,28.06,23.17,29.17,23.17z
	 M29.17,20.17c0.55,0,1,0.45,1,1c0,0.55-0.45,1-1,1s-1-0.45-1-1C28.17,20.62,28.62,20.17,29.17,20.17z"/>
<path fill="#3A1B11" d="M10.35,8.66c1.1,0,2-0.9,2-2c0-1.1-0.9-2-2-2s-2,0.9-2,2C8.35,7.76,9.24,8.66,10.35,8.66z M10.35,5.66
	c0.55,0,1,0.45,1,1s-0.45,1-1,1s-1-0.45-1-1S9.8,5.66,10.35,5.66z"/>
<path fill="#3A1B11" d="M30.84,27.4c0.08-0.22,0.14-0.45,0.14-0.7c0-1.1-0.9-2-2-2c-0.59,0-1.11,0.26-1.47,0.67
	c-0.57-0.41-1.27-0.67-2.03-0.67c-1.54,0-2.84,1-3.31,2.39c0.27,0.29,0.55,0.56,0.84,0.81c0.15-1.23,1.2-2.19,2.47-2.19
	c1.17,0,2.15,0.81,2.42,1.9c-0.55,0.46-0.9,1.14-0.9,1.91c0,0.21,0.03,0.41,0.08,0.6c-0.24,0.2-0.52,0.35-0.83,0.46
	c0.04,0.2,0.07,0.41,0.05,0.62c-0.01,0.15-0.05,0.29-0.09,0.43c0.01,0,0.01,0,0.02,0c0.48-0.1,0.93-0.31,1.31-0.59
	c0.46,0.59,1.16,0.97,1.97,0.97c1.38,0,2.5-1.12,2.5-2.5C32,28.62,31.54,27.85,30.84,27.4z M28.99,25.7c0.55,0,1,0.45,1,1
	c0,0.12-0.03,0.24-0.08,0.35c-0.13-0.02-0.27-0.04-0.41-0.04c-0.25,0-0.48,0.05-0.7,0.11c-0.12-0.38-0.31-0.74-0.55-1.05
	C28.42,25.85,28.68,25.7,28.99,25.7z M29.5,31.01c-0.83,0-1.5-0.67-1.5-1.5c0-0.83,0.67-1.5,1.5-1.5c0.83,0,1.5,0.67,1.5,1.5
	C31,30.33,30.33,31.01,29.5,31.01z"/>
<path fill="#3A1B11" d="M11.19,31.44c-0.13-0.14-0.23-0.29-0.34-0.44H3.79c-0.59,0-1.16-0.51-1.23-1.1l-1.55-13.7
	c-0.03-0.24,0.04-0.46,0.18-0.62c0.14-0.16,0.36-0.25,0.6-0.25h12c0.24,0,0.46,0.09,0.6,0.25c0.14,0.16,0.21,0.38,0.18,0.63
	l-0.66,6.1c0.34-0.25,0.71-0.5,1.09-0.73l0.57-5.26c0.08-0.75-0.28-1.4-0.86-1.74c0.09-0.25,0.14-0.52,0.14-0.81
	c0-0.89-0.46-1.66-1.16-2.1c0.08-0.22,0.14-0.45,0.14-0.7c0-1.1-0.9-2-2-2c-0.59,0-1.11,0.26-1.47,0.67
	C9.79,9.22,9.09,8.97,8.33,8.97c-1.81,0-3.28,1.38-3.46,3.13c-0.12-0.02-0.24-0.04-0.37-0.04c-1.3,0-2.36,1-2.48,2.27H1.79
	c-1.1,0-1.9,0.89-1.78,1.99l1.55,13.7c0.12,1.09,1.12,1.99,2.22,1.99h8.03c0.01,0,0.03,0,0.04,0C11.63,31.84,11.4,31.66,11.19,31.44
	z M11.83,9.97c0.55,0,1,0.45,1,1c0,0.12-0.03,0.24-0.08,0.35c-0.13-0.02-0.27-0.04-0.41-0.04c-0.25,0-0.48,0.05-0.7,0.11
	c-0.12-0.38-0.31-0.74-0.55-1.05C11.27,10.12,11.53,9.97,11.83,9.97z M12.35,12.27c0.83,0,1.5,0.67,1.5,1.5
	c0,0.2-0.04,0.39-0.11,0.56h-2.78c-0.07-0.17-0.11-0.36-0.11-0.56C10.85,12.95,11.52,12.27,12.35,12.27z M8.33,9.97
	c1.17,0,2.15,0.81,2.42,1.9c-0.55,0.46-0.9,1.14-0.9,1.91c0,0.19,0.03,0.38,0.07,0.56H6.68c-0.52-0.46-0.85-1.12-0.85-1.86
	C5.83,11.09,6.95,9.97,8.33,9.97z M4.5,13.07c0.14,0,0.27,0.03,0.4,0.06c0.09,0.43,0.25,0.84,0.48,1.2H3.03
	C3.14,13.62,3.76,13.07,4.5,13.07z"/>
</svg>
