<?xml version="1.0" encoding="utf-8"?>
<!-- Generator: Adobe Illustrator 18.1.1, SVG Export Plug-In . SVG Version: 6.00 Build 0)  -->
<svg version="1.1" id="Слой_1" xmlns="http://www.w3.org/2000/svg" xmlns:xlink="http://www.w3.org/1999/xlink" x="0px" y="0px"
	 viewBox="0 0 32 32" enable-background="new 0 0 32 32" xml:space="preserve">
<rect x="0" y="0" fill="none" width="32" height="32"/>
<path fill="#3A1B11" d="M30,9h-0.5V5.5C29.5,4.68,28.83,4,28,4s-1.5,0.68-1.5,1.5V9h-1V5.5C25.5,4.68,24.83,4,24,4
	s-1.5,0.68-1.5,1.5V9H22c-0.55,0-1,0.45-1,1v2c0,0.55,0.45,1,1,1c0,1.67,1.03,3.1,2.49,3.7V29h-13l0-1H13c0.55,0,1-0.45,1-1v-2
	c0-0.03-0.02-0.06-0.02-0.1c2.86-0.45,5.02-2.45,5.02-4.84V18c0-0.55-0.45-1-1-1V5c0-2.75-2.25-5-5-5c-1.13,0-2.16,0.39-3,1.03
	C9.16,0.39,8.13,0,7,0C4.25,0,2,2.25,2,5v12c-0.55,0-1,0.45-1,1v2.06c0,2.39,2.16,4.39,5.02,4.84C6.02,24.94,6,24.97,6,25v2
	c0,0.55,0.45,1,1,1h1.5l-0.01,2.49c0,0.4,0.15,0.78,0.44,1.07C9.21,31.84,9.59,32,9.99,32h16c0.83,0,1.5-0.67,1.5-1.5V16.71
	c1.44-0.58,2.47-1.98,2.51-3.62c0-0.03,0-0.05,0-0.08c0,0,0,0,0,0c0.55,0,1-0.45,1-1v-2C31,9.45,30.55,9,30,9z M27.5,5.5
	C27.5,5.23,27.73,5,28,5c0.27,0,0.5,0.23,0.5,0.5V9h-1V5.5z M23.5,5.5C23.5,5.23,23.73,5,24,5c0.27,0,0.5,0.23,0.5,0.5V9h-1V5.5z
	 M22,10h0.5h3h1h3H30v2h-0.99H29h-6h-1V10z M17,5v12h-2V6c0-1.1-0.9-2-2-2c-1.1,0-2,0.9-2,2v11H9V6V5c0-1.01,0.39-1.91,1-2.62
	c0.1-0.11,0.2-0.22,0.31-0.33c0.13-0.12,0.27-0.24,0.42-0.34l0,0l0,0C11.38,1.26,12.16,1,13,1C15.21,1,17,2.79,17,5z M14,17h-2V6
	c0-0.55,0.45-1,1-1s1,0.45,1,1V17z M8,17H6V6c0-0.55,0.45-1,1-1s1,0.45,1,1V17z M3,5c0-2.21,1.79-4,4-4c0.84,0,1.61,0.28,2.25,0.73
	c-0.63,0.72-1.05,1.6-1.18,2.59C7.76,4.12,7.39,4,7,4C5.9,4,5,4.9,5,6v11H3V5z M2,20.06V18h16v2.06c0,2.17-2.36,3.94-5.25,3.94h-5.5
	C4.36,24,2,22.23,2,20.06z M7,27v-2h0.25h5.5H13v2H7z M26.49,16.97V30.5c0,0.28-0.22,0.5-0.5,0.5h-16c-0.13,0-0.26-0.05-0.35-0.15
	c-0.09-0.09-0.15-0.22-0.14-0.36L9.5,28h1l0,1l0,1h1h13h1v-1V16.97c0.16,0.02,0.33,0.03,0.5,0.03c0,0,0,0,0,0c0,0,0,0,0,0
	c0,0,0.01,0,0.01,0C26.17,17,26.33,16.99,26.49,16.97z M27.45,15.61C27.45,15.61,27.45,15.61,27.45,15.61
	c-0.21,0.11-0.43,0.2-0.66,0.27c-0.02,0-0.03,0.01-0.05,0.02C26.5,15.96,26.25,16,26,16c-0.01,0-0.01,0-0.02,0
	c-0.24,0-0.48-0.04-0.7-0.1c-0.04-0.01-0.07-0.02-0.11-0.03c-0.21-0.06-0.41-0.14-0.6-0.25C23.64,15.11,23,14.13,23,13h6
	C29,14.13,28.37,15.1,27.45,15.61z"/>
</svg>
