<?xml version="1.0" encoding="utf-8"?>
<!-- Generator: Adobe Illustrator 18.1.1, SVG Export Plug-In . SVG Version: 6.00 Build 0)  -->
<svg version="1.1" id="Слой_1" xmlns="http://www.w3.org/2000/svg" xmlns:xlink="http://www.w3.org/1999/xlink" x="0px" y="0px"
	 viewBox="0 0 32 32" enable-background="new 0 0 32 32" xml:space="preserve">
<rect x="0" y="0" fill="none" width="32" height="32"/>
<g>
	<path fill="#3A1B11" d="M30,1H2C0.9,1,0,1.9,0,3v8c0,1.1,0.9,2,2,2h28c1.1,0,2-0.9,2-2V3C32,1.9,31.1,1,30,1z M31,11
		c0,0.55-0.45,1-1,1H2c-0.55,0-1-0.45-1-1V3c0-0.55,0.45-1,1-1h28c0.55,0,1,0.45,1,1V11z"/>
	<path fill="#3A1B11" d="M16,22c-1.1,0-2,0.9-2,2s0.9,2,2,2s2-0.9,2-2S17.1,22,16,22z M16,25c-0.55,0-1-0.45-1-1s0.45-1,1-1
		s1,0.45,1,1S16.55,25,16,25z"/>
	<path fill="#3A1B11" d="M28.5,8C27.67,8,27,8.67,27,9.5s0.67,1.5,1.5,1.5S30,10.33,30,9.5S29.33,8,28.5,8z M28.5,10
		C28.22,10,28,9.78,28,9.5S28.22,9,28.5,9S29,9.22,29,9.5S28.78,10,28.5,10z"/>
	<path fill="#3A1B11" d="M16,20c-2.21,0-4,1.79-4,4c0,2.21,1.79,4,4,4c2.21,0,4-1.79,4-4C20,21.79,18.21,20,16,20z M16,27
		c-1.65,0-3-1.35-3-3c0-1.65,1.35-3,3-3c1.65,0,3,1.35,3,3C19,25.65,17.65,27,16,27z"/>
	<path fill="#3A1B11" d="M28.5,3h-3C24.67,3,24,3.67,24,4.5S24.67,6,25.5,6h3C29.33,6,30,5.33,30,4.5S29.33,3,28.5,3z M28.5,5h-3
		C25.23,5,25,4.77,25,4.5C25,4.23,25.23,4,25.5,4h3C28.77,4,29,4.23,29,4.5C29,4.77,28.77,5,28.5,5z"/>
	<path fill="#3A1B11" d="M4,18c0,4.35,1.98,8.18,5,10.54v0l0,0c1.97,1.54,4.38,2.46,7,2.46c6.63,0,12-5.82,12-13v-4H4V18z M22,28.04
		L22,28.04C20.27,29.28,18.21,30,16,30c-2.21,0-4.27-0.72-6-1.96v0V24c0-3.31,2.69-6,6-6s6,2.69,6,6V28.04z M5,15h22v3
		c0,3.72-1.56,7.05-4,9.25V24c0-3.85-3.15-7-7-7c-3.85,0-7,3.15-7,7v3.25c-2.44-2.2-4-5.53-4-9.25V15z"/>
</g>
</svg>
