<?xml version="1.0" encoding="utf-8"?>
<!-- Generator: Adobe Illustrator 18.1.1, SVG Export Plug-In . SVG Version: 6.00 Build 0)  -->
<svg version="1.1" id="Слой_1" xmlns="http://www.w3.org/2000/svg" xmlns:xlink="http://www.w3.org/1999/xlink" x="0px" y="0px"
	 viewBox="0 0 32 32" enable-background="new 0 0 32 32" xml:space="preserve">
<rect x="0" y="0" fill="none" width="32" height="32"/>
<g>
	<path fill="#3A1B11" d="M16,5L16,5C9.95,5,5,9.95,5,16h22C27,9.95,22.05,5,16,5z M16,6c1.64,0,3.19,0.4,4.56,1.1L16,15h0l-4.56-7.9
		C12.81,6.4,14.36,6,16,6z M10.58,7.61L14.85,15h-8.8C6.36,11.9,8.09,9.22,10.58,7.61z M17.15,15l4.27-7.39
		c2.49,1.61,4.22,4.29,4.53,7.39H17.15z"/>
	<path fill="#3A1B11" d="M16,0L16,0C7.2,0,0,7.2,0,16v16h32V16C32,7.2,24.8,0,16,0z M31,31H1V16C1,7.73,7.73,1,16,1
		c8.27,0,15,6.73,15,15V31z"/>
	<path fill="#3A1B11" d="M20,18h-1v0h-6v0h-1v0H5v5h0v1h0v5h22V18L20,18L20,18z M19,19v4h-6v-4H19z M19,24v4h-6v-4H19z M6,19h6v4H6
		V19z M6,24h6v4H6V24z M20,28v-4h6v4H20z M26,19v4h-6v-4H26z"/>
</g>
</svg>
