<?xml version="1.0" encoding="utf-8"?>
<!-- Generator: Adobe Illustrator 18.1.1, SVG Export Plug-In . SVG Version: 6.00 Build 0)  -->
<svg version="1.1" id="Слой_1" xmlns="http://www.w3.org/2000/svg" xmlns:xlink="http://www.w3.org/1999/xlink" x="0px" y="0px"
	 viewBox="0 0 32 32" enable-background="new 0 0 32 32" xml:space="preserve">
<rect x="0" y="0" fill="none" width="32" height="32"/>
<g>
	<path fill="#3A1B11" d="M30.11,5.16C24.64,4.82,19.7,3.03,17.3,0.56C16.93,0.19,16.45,0,15.98,0c-0.47,0-0.94,0.19-1.31,0.56
		c-2.43,2.48-7.29,4.27-12.78,4.6C0.83,5.22,0,6.13,0,7.24v2.4c0,9.89,6.53,18.43,16,22.45c9.47-4.03,16-12.57,16-22.45v-2.4
		C32,6.13,31.17,5.22,30.11,5.16z M31,9.64c0,8.98-5.87,17.32-15,21.36C6.87,26.96,1,18.62,1,9.64v-2.4c0-0.57,0.42-1.05,0.95-1.08
		c5.66-0.35,10.81-2.23,13.43-4.9C15.54,1.09,15.75,1,15.98,1c0.22,0,0.44,0.09,0.61,0.26c2.6,2.67,7.77,4.55,13.47,4.9
		C30.58,6.19,31,6.67,31,7.24V9.64z"/>
	<path fill="#3A1B11" d="M26.26,12.06l-9.92-8.93c-0.19-0.17-0.48-0.17-0.67,0l-10,9c-0.15,0.14-0.21,0.36-0.13,0.55
		C5.61,12.87,5.79,13,6,13h1v8.5c0,1.1,0.9,2,2,2h14c1.1,0,2-0.9,2-2V13h1c0.01,0,0.01,0,0.02,0c0.28,0,0.5-0.22,0.5-0.5
		C26.52,12.31,26.42,12.15,26.26,12.06z M24,21.5c0,0.55-0.45,1-1,1H9c-0.55,0-1-0.45-1-1V13h16V21.5z M7.3,12L16,4.17L24.7,12H7.3z
		"/>
	<path fill="#3A1B11" d="M13,21h6c0.55,0,1-0.45,1-1v-4c0-0.55-0.45-1-1-1h-6c-0.55,0-1,0.45-1,1v4C12,20.55,12.45,21,13,21z M13,16
		h6v4h-6V16z"/>
	<path fill="#3A1B11" d="M14,8v2c0,0.55,0.45,1,1,1h2c0.55,0,1-0.45,1-1V8c0-0.55-0.45-1-1-1h-2C14.45,7,14,7.45,14,8z M17,10h-2V8
		h2V10z"/>
</g>
</svg>
