<?xml version="1.0" encoding="utf-8"?>
<!-- Generator: Adobe Illustrator 18.1.1, SVG Export Plug-In . SVG Version: 6.00 Build 0)  -->
<svg version="1.1" id="Слой_1" xmlns="http://www.w3.org/2000/svg" xmlns:xlink="http://www.w3.org/1999/xlink" x="0px" y="0px"
	 viewBox="0 0 32 32" enable-background="new 0 0 32 32" xml:space="preserve">
<rect x="0" fill="none" width="32" height="32"/>
<path fill="#3A1B11" d="M27.5,11.13V1.5C27.5,0.67,26.83,0,26,0s-1.5,0.67-1.5,1.5v9.63c-2.02,0.64-3.5,2.51-3.5,4.75h10
	C31,13.64,29.52,11.77,27.5,11.13z M25.5,10.9V1.5C25.5,1.22,25.72,1,26,1s0.5,0.22,0.5,0.5v9.4c-0.17-0.02-0.34-0.02-0.5-0.02
	S25.67,10.88,25.5,10.9z M25.29,11.94c0.23-0.04,0.47-0.07,0.71-0.07s0.48,0.03,0.71,0.07c1.54,0.28,2.78,1.44,3.16,2.93h-7.75
	C22.51,13.38,23.75,12.22,25.29,11.94z"/>
<path fill="#3A1B11" d="M31,17H21v4h2v3c0,1.08-0.92,2-2,2s-2-0.92-2-2v-4.15v-4.48h0.98v-4H19V8c0-4.41-3.59-8-8-8S3,3.59,3,8v10H1
	v4h10v-4H9V8c0-1.08,0.92-2,2-2s2,0.92,2,2v3.38h-1.02v4H13v4.48V24c0,4.41,3.59,8,8,8s8-3.59,8-8v-3h2V17z M10,19v2H2v-2H10z M11,5
	C9.37,5,8,6.37,8,8v10H4V8c0-3.86,3.14-7,7-7s7,3.14,7,7v3.38h-4V8C14,6.37,12.63,5,11,5z M12.98,14.38v-2h6v2H12.98z M28,24
	c0,3.86-3.14,7-7,7s-7-3.14-7-7v-4.15v-4.48h4v4.48V24c0,1.63,1.37,3,3,3s3-1.37,3-3v-3h4V24z M30,20h-8v-2h8V20z"/>
</svg>
