<?xml version="1.0" encoding="utf-8"?>
<!-- Generator: Adobe Illustrator 18.1.1, SVG Export Plug-In . SVG Version: 6.00 Build 0)  -->
<svg version="1.1" id="Слой_1" xmlns="http://www.w3.org/2000/svg" xmlns:xlink="http://www.w3.org/1999/xlink" x="0px" y="0px"
	 viewBox="0 0 32 32" enable-background="new 0 0 32 32" xml:space="preserve">
<rect x="0" y="0" fill="none" width="32" height="32"/>
<path fill="#3A1B11" d="M31,26v-1v-1c0-0.55-0.45-1-1-1h-0.01c0-0.23-0.07-0.46-0.22-0.64l-2.5-3c-0.08-0.1-0.19-0.17-0.29-0.23
	C26.98,19.09,27,19.05,27,19v-1.25c0-0.09,0.03-0.18,0.07-0.23c0.6-0.65,0.93-1.49,0.93-2.36c0-1.93-1.57-3.5-3.5-3.5
	c-0.31,0-0.62,0.04-0.93,0.12c-1.16,0.3-2.11,1.24-2.44,2.39c-0.34,1.2-0.04,2.45,0.8,3.35c0.04,0.04,0.07,0.13,0.07,0.23V19h-1.85
	c0-0.12-0.01-0.24-0.06-0.36l-3.04-7.88c0-0.04,0-0.09-0.02-0.13c-0.57-1.55-0.19-3.3,0.98-4.46c1.28-1.28,3.36-1.28,4.64,0
	c0.48,0.48,0.74,1.11,0.74,1.79c0,0.68-0.26,1.31-0.74,1.79c-0.73,0.73-1.99,0.73-2.72,0c-0.27-0.27-0.42-0.63-0.42-1.02
	c0-0.38,0.15-0.74,0.42-1.02c0.2-0.2,0.2-0.51,0-0.71s-0.51-0.2-0.71,0c-0.46,0.46-0.71,1.07-0.71,1.72c0,0.65,0.25,1.26,0.71,1.72
	c1.1,1.1,3.03,1.1,4.13,0c0.67-0.67,1.03-1.55,1.03-2.49c0-0.94-0.37-1.83-1.03-2.49c-1.67-1.67-4.39-1.67-6.06,0
	c-0.16,0.16-0.31,0.33-0.44,0.51c0.37-1.19,1.01-2.29,1.91-3.19c2.37-2.37,6.23-2.37,8.6,0c0.86,0.86,1.36,2.01,1.39,3.23
	c0.04,1.33-0.46,2.57-1.39,3.51c-0.2,0.2-0.2,0.51,0,0.71c0.1,0.1,0.23,0.15,0.35,0.15s0.26-0.05,0.35-0.15
	c1.12-1.12,1.73-2.66,1.69-4.24c-0.04-1.48-0.64-2.87-1.69-3.91c-2.76-2.76-7.26-2.76-10.02,0c-1.35,1.35-2.19,3.1-2.45,4.95
	l-1.69-4.39C13.76,2.25,13.39,2,12.98,2h-1c-0.15,0-0.3,0.04-0.43,0.1l-0.17-0.4C10.94,0.67,9.94,0,8.82,0H7.89
	C7.13,0,6.43,0.37,6,1C5.58,1.63,5.49,2.42,5.77,3.13l1.03,2.59C6.89,5.93,6.9,6.16,6.84,6.38L3.04,18.71
	C3.01,18.8,3.03,18.9,3.03,19H3c-0.55,0-1,0.45-1,1v3c-0.55,0-1,0.45-1,1v1h0v1H0v1v1l0,3v1h1h30h1v-1l0-3v-1v-1H31z M22.1,14.45
	c0.23-0.82,0.9-1.48,1.73-1.7c0.23-0.06,0.45-0.09,0.67-0.09c1.38,0,2.5,1.12,2.5,2.5c0,0.65-0.25,1.24-0.66,1.68
	C26.11,17.09,26,17.42,26,17.75V19h-3v-1.24c0-0.33-0.11-0.67-0.33-0.91C22.11,16.25,21.84,15.38,22.1,14.45z M12.98,3l6.18,16h-1
	L12.88,5.33c-0.02-0.06-0.03-0.13-0.06-0.19l-0.16-0.39L11.98,3H12.98z M17.08,19h-5.86c0-0.28-0.11-0.55-0.32-0.74
	c-0.58-0.52-0.9-1.23-0.9-1.99c0-0.18,0.02-0.37,0.06-0.57l1.24-4.02l1.31-4.26L17.08,19z M7.79,6.68c0.13-0.44,0.12-0.91-0.05-1.34
	L6.7,2.76C6.37,1.91,6.99,1,7.89,1h0.93c0.71,0,1.36,0.43,1.63,1.09l1.27,3.04l0.19,0.49c0.07,0.2,0.08,0.42,0.02,0.63l-1.59,5.14
	l0,0l-1.26,4.09l0,0C9.03,15.73,9,15.99,9,16.26c0,1.09,0.48,2.06,1.23,2.74H7.2H4L7.79,6.68z M3,20h1h3.2h3.04h7.92h1H23h3h0.5
	l2.5,3H3V20z M2,25v-1h1h26h1v1v1H2V25z M31,28L31,28v3h0H1h0l0-3v-1h1h28h1V28z"/>
</svg>
