<?xml version="1.0" encoding="utf-8"?>
<!-- Generator: Adobe Illustrator 18.1.1, SVG Export Plug-In . SVG Version: 6.00 Build 0)  -->
<svg version="1.1" id="Слой_1" xmlns="http://www.w3.org/2000/svg" xmlns:xlink="http://www.w3.org/1999/xlink" x="0px" y="0px"
	 viewBox="0 0 32 32" enable-background="new 0 0 32 32" xml:space="preserve">
<rect x="0" y="0" fill="none" width="32" height="32"/>
<path fill="#D7C1B9" d="M30,30c0,0.55-0.45,1-1,1H3c-0.55,0-1-0.45-1-1V11h28V30z"/>
<polygon fill="#AE8273" points="1,10 16,1 31,10 "/>
<g>
	<path fill="#3A1B11" d="M4.48,16h23.04c0.82,0,1.48-0.67,1.48-1.5S28.34,13,27.52,13H4.48C3.66,13,3,13.67,3,14.5S3.66,16,4.48,16z
		 M4.48,14h23.04c0.27,0,0.48,0.22,0.48,0.5S27.79,15,27.52,15H4.48C4.21,15,4,14.78,4,14.5S4.21,14,4.48,14z"/>
	<path fill="#3A1B11" d="M31.51,9.14l-15-9C16.36,0.05,16.18,0,16,0c-0.18,0-0.36,0.05-0.51,0.14l-15,9
		C0.1,9.37-0.08,9.83,0.04,10.27C0.16,10.7,0.55,11,1,11v1v1v3v1v13c0,1.1,0.9,2,2,2h26c1.1,0,2-0.9,2-2V17v-1v-3v-1v-1
		c0.45,0,0.84-0.3,0.96-0.73S31.9,9.37,31.51,9.14z M30,30c0,0.55-0.45,1-1,1H3c-0.55,0-1-0.45-1-1V11h28V30z M1,10l15-9l15,9H1z"/>
	<path fill="#3A1B11" d="M19.24,18.63c-0.4-0.99-1.37-1.63-2.46-1.63H13.2c-0.55,0-1.05,0.27-1.35,0.71
		c-0.29,0.43-0.35,0.97-0.16,1.45l4.24,10.52C16.01,29.88,16.2,30,16.39,30c0.06,0,0.13-0.01,0.19-0.04
		c0.26-0.1,0.38-0.39,0.28-0.65L16.33,28h5.61l0.68,1.69c0.1,0.26,0.4,0.38,0.65,0.28c0.26-0.1,0.38-0.39,0.28-0.65L19.24,18.63z
		 M12.62,18.79c-0.07-0.17-0.05-0.36,0.06-0.52C12.79,18.1,12.98,18,13.2,18h3.58c0.67,0,1.29,0.4,1.53,1.01l0.8,1.99h-5.6
		L12.62,18.79z M13.91,22h5.6l0.81,2h-5.6L13.91,22z M15.93,27l-0.81-2h5.6l0.81,2H15.93z"/>
	<path fill="#3A1B11" d="M11.05,27l1.36-3.38l-0.54-1.34L9.97,27H9.93v0.08l-0.9,2.23c-0.1,0.26,0.02,0.55,0.28,0.65
		c0.25,0.1,0.55-0.02,0.65-0.28L10.64,28h3.53l-0.4-1H11.05z"/>
	<path fill="#3A1B11" d="M14,5v2c0,0.55,0.45,1,1,1h2c0.55,0,1-0.45,1-1V5c0-0.55-0.45-1-1-1h-2C14.45,4,14,4.45,14,5z M17,7h-2V5h2
		V7z"/>
</g>
<path fill="#DCA54D" d="M27.52,15c0.27,0,0.48-0.22,0.48-0.5S27.79,14,27.52,14H4.48C4.21,14,4,14.22,4,14.5S4.21,15,4.48,15H27.52z
	"/>
<rect x="15" y="5" fill="#B5BFC8" width="2" height="2"/>
</svg>
