<?xml version="1.0" encoding="utf-8"?>
<!-- Generator: Adobe Illustrator 18.1.1, SVG Export Plug-In . SVG Version: 6.00 Build 0)  -->
<svg version="1.1" id="Слой_1" xmlns="http://www.w3.org/2000/svg" xmlns:xlink="http://www.w3.org/1999/xlink" x="0px" y="0px"
	 viewBox="0 0 32 32" enable-background="new 0 0 32 32" xml:space="preserve">
<rect x="0" y="0" fill="none" width="32" height="32"/>
<g>
	<polygon fill="#DCA54D" points="1,27 1,28 1,31 1,31 31,31 31,31 31,28 31,28 31,27 30,27 2,27 	"/>
	<g>
		<path fill="#DCA54D" d="M16.56,11.3c-0.2,0-0.39-0.13-0.47-0.33c-0.71-1.91-0.23-4.08,1.21-5.52c1.67-1.67,4.39-1.67,6.06,0
			c0.67,0.67,1.03,1.55,1.03,2.49c0,0.94-0.37,1.83-1.03,2.49c-1.1,1.1-3.03,1.1-4.13,0c-0.46-0.46-0.71-1.07-0.71-1.72
			c0-0.65,0.25-1.26,0.71-1.72c0.2-0.2,0.51-0.2,0.71,0s0.2,0.51,0,0.71c-0.27,0.27-0.42,0.63-0.42,1.02c0,0.38,0.15,0.75,0.42,1.02
			c0.73,0.73,1.99,0.73,2.72,0c0.48-0.48,0.74-1.11,0.74-1.79c0-0.67-0.26-1.31-0.74-1.79c-1.28-1.28-3.36-1.28-4.64,0
			c-1.17,1.17-1.55,2.92-0.98,4.46c0.1,0.26-0.04,0.55-0.29,0.64C16.67,11.29,16.61,11.3,16.56,11.3z"/>
	</g>
	<g>
		<path fill="#DCA54D" d="M27.72,10.38c-0.13,0-0.26-0.05-0.35-0.15c-0.2-0.2-0.2-0.51,0-0.71c0.94-0.94,1.43-2.18,1.39-3.51
			c-0.04-1.22-0.53-2.37-1.39-3.23c-2.37-2.37-6.23-2.37-8.6,0C17.01,4.54,16.2,7.05,16.6,9.5c0.04,0.27-0.14,0.53-0.41,0.57
			c-0.27,0.05-0.53-0.14-0.57-0.41c-0.45-2.77,0.46-5.6,2.44-7.58c2.76-2.76,7.26-2.76,10.02,0c1.04,1.05,1.64,2.44,1.69,3.91
			c0.04,1.58-0.57,3.13-1.69,4.24C27.98,10.33,27.85,10.38,27.72,10.38z"/>
	</g>
	<path fill="none" stroke="#1D1D1B" stroke-linecap="round" stroke-linejoin="round" stroke-miterlimit="10" d="M9.42,8.13"/>
	<path fill="#D7C1B9" d="M24.5,12.66c1.38,0,2.5,1.12,2.5,2.5c0,0.65-0.25,1.24-0.66,1.68C26.11,17.09,26,17.42,26,17.75V19h-3
		v-1.24c0-0.33-0.11-0.67-0.33-0.91c-0.56-0.6-0.83-1.47-0.57-2.4c0.23-0.82,0.9-1.48,1.73-1.7C24.06,12.69,24.28,12.66,24.5,12.66"
		/>
	<polyline fill="#766158" points="26.5,20 29,23 3,23 3,20 26.5,20 	"/>
	<path fill="#DCA54D" d="M8.82,1c0.71,0,1.36,0.43,1.63,1.09l1.44,3.45c0.09,0.22,0.11,0.47,0.03,0.71l-1.59,5.14l0,0l-1.26,4.09
		l0,0C9.03,15.73,9,15.99,9,16.26c0,1.09,0.48,2.06,1.23,2.74H7.2H4L7.79,6.68c0.13-0.44,0.12-0.91-0.05-1.34L6.7,2.76
		C6.37,1.91,6.99,1,7.89,1H8.82"/>
	<path fill="#DB7831" d="M8.74,5.34L7.7,2.76C7.37,1.93,7.97,1.03,8.85,1C8.84,1,8.83,1,8.82,1H7.89C6.99,1,6.37,1.91,6.7,2.76
		l1.03,2.59c0.17,0.43,0.19,0.9,0.05,1.34L4,19h1L8.79,6.68C8.93,6.24,8.91,5.77,8.74,5.34z"/>
	<polyline fill="#92A9B9" points="12.98,3 19.16,19 18.16,19 11.98,3 12.98,3 	"/>
	<polyline fill="#92A9B9" points="30,24 30,26 2,26 2,24 30,24 	"/>
	<g>
		<polygon fill="#DB7831" points="6,27 3,31 4,31 7,27 		"/>
		<polygon fill="#DB7831" points="8,27 5,31 8,31 11,27 		"/>
	</g>
	<path fill="#3A1B11" d="M31,26v-1v-1c0-0.55-0.45-1-1-1h-0.01c0-0.23-0.07-0.46-0.22-0.64l-2.5-3c-0.08-0.1-0.19-0.17-0.29-0.23
		C26.98,19.09,27,19.05,27,19v-1.25c0-0.09,0.03-0.18,0.07-0.23c0.6-0.65,0.93-1.49,0.93-2.36c0-1.93-1.57-3.5-3.5-3.5
		c-0.31,0-0.62,0.04-0.93,0.12c-1.16,0.3-2.11,1.24-2.44,2.39c-0.34,1.2-0.04,2.45,0.8,3.35c0.04,0.04,0.07,0.13,0.07,0.23V19h-1.85
		c0-0.12-0.01-0.24-0.06-0.36l-6.18-16C13.76,2.25,13.39,2,12.98,2h-1c-0.15,0-0.3,0.04-0.43,0.1l-0.17-0.4
		C10.94,0.67,9.94,0,8.82,0H7.89C7.13,0,6.43,0.37,6,1C5.58,1.63,5.49,2.42,5.77,3.13l1.03,2.59C6.89,5.93,6.9,6.16,6.84,6.38
		L3.04,18.71C3.01,18.8,3.03,18.9,3.03,19H3c-0.55,0-1,0.45-1,1v3c-0.55,0-1,0.45-1,1v1h0v1H0v1v1l0,3v1h1h30h1v-1l0-3v-1v-1H31z
		 M22.1,14.45c0.23-0.82,0.9-1.48,1.73-1.7c0.23-0.06,0.45-0.09,0.67-0.09c1.38,0,2.5,1.12,2.5,2.5c0,0.65-0.25,1.24-0.66,1.68
		C26.11,17.09,26,17.42,26,17.75V19h-3v-1.24c0-0.33-0.11-0.67-0.33-0.91C22.11,16.25,21.84,15.38,22.1,14.45z M12.98,3l6.18,16h-1
		L12.88,5.33c-0.02-0.06-0.03-0.13-0.06-0.19l-0.16-0.39L11.98,3H12.98z M17.08,19h-5.86c0-0.28-0.11-0.55-0.32-0.74
		c-0.58-0.52-0.9-1.23-0.9-1.99c0-0.18,0.02-0.37,0.06-0.57l1.24-4.02l1.31-4.26L17.08,19z M7.79,6.68
		c0.13-0.44,0.12-0.91-0.05-1.34L6.7,2.76C6.37,1.91,6.99,1,7.89,1h0.93c0.71,0,1.36,0.43,1.63,1.09l1.27,3.04l0.19,0.49
		c0.07,0.2,0.08,0.42,0.02,0.63l-1.59,5.14l0,0l-1.26,4.09l0,0C9.03,15.73,9,15.99,9,16.26c0,1.09,0.48,2.06,1.23,2.74H7.2H4
		L7.79,6.68z M3,20h1h3.2h3.04h7.92h1H23h3h0.5l2.5,3H3V20z M2,25v-1h1h26h1v1v1H2V25z M31,28L31,28v3h0H1h0l0-3v-1h1h28h1V28z"/>
	<path fill="#AE8273" d="M23.67,16.85c-0.56-0.6-0.83-1.47-0.57-2.4c0.23-0.82,0.9-1.48,1.73-1.7c0.07-0.02,0.14-0.01,0.21-0.03
		c-0.17-0.04-0.35-0.06-0.54-0.06c-0.22,0-0.44,0.03-0.67,0.09c-0.82,0.21-1.5,0.88-1.73,1.7c-0.26,0.93,0.01,1.8,0.57,2.4
		c0.23,0.24,0.33,0.58,0.33,0.91V19h1v-1.24C24,17.43,23.89,17.09,23.67,16.85z"/>
</g>
</svg>
