<?xml version="1.0" encoding="utf-8"?>
<!-- Generator: Adobe Illustrator 18.1.1, SVG Export Plug-In . SVG Version: 6.00 Build 0)  -->
<svg version="1.1" id="Слой_1" xmlns="http://www.w3.org/2000/svg" xmlns:xlink="http://www.w3.org/1999/xlink" x="0px" y="0px"
	 viewBox="0 0 32 32" enable-background="new 0 0 32 32" xml:space="preserve">
<rect x="0.02" y="0" fill="none" width="32" height="32"/>
<path fill="#B5BFC8" d="M26,30c0,0.55-0.45,1-1,1H7c-0.55,0-1-0.45-1-1V2c0-0.55,0.45-1,1-1h18c0.55,0,1,0.45,1,1V30z"/>
<path fill="#92A9B9" d="M1.17,9.27C1.04,9.04,1,8.77,1.07,8.51C1.14,8.25,1.3,8.04,1.53,7.9L5,5.9v10L1.17,9.27z"/>
<path fill="#AE8273" d="M30.04,10c0.16,0,0.41,0.04,0.64,0.23c0.36,0.3,0.43,0.9,0.16,1.37l-7.89,13.66
	c-0.03,0.05-0.08,0.05-0.09,0.05c-0.02,0-0.03,0-0.05-0.01l-1.64-0.95l8-13.86C29.34,10.19,29.68,10,30.04,10"/>
<path fill="#DCA54D" d="M10.5,25c0.83,0,1.5,0.67,1.5,1.5S11.33,28,10.5,28S9,27.33,9,26.5S9.67,25,10.5,25"/>
<g>
	<g>
		<polygon fill="#766158" points="26.91,14.41 26.41,15.28 27.39,17.58 27.89,16.71 		"/>
	</g>
	<g>
		<polygon fill="#766158" points="28.91,10.95 27.41,13.55 28.39,15.85 29.89,13.25 		"/>
	</g>
</g>
<g>
	<path fill="#3A1B11" d="M9.5,4h13C22.78,4,23,3.78,23,3.5C23,3.22,22.78,3,22.5,3h-13C9.22,3,9,3.22,9,3.5C9,3.78,9.22,4,9.5,4z"/>
	<path fill="#3A1B11" d="M9.5,7h13C22.78,7,23,6.78,23,6.5C23,6.22,22.78,6,22.5,6h-13C9.22,6,9,6.22,9,6.5C9,6.78,9.22,7,9.5,7z"/>
	<path fill="#3A1B11" d="M9.5,10h13c0.28,0,0.5-0.22,0.5-0.5C23,9.22,22.78,9,22.5,9h-13C9.22,9,9,9.22,9,9.5C9,9.78,9.22,10,9.5,10
		z"/>
	<path fill="#3A1B11" d="M9.5,13h13c0.28,0,0.5-0.22,0.5-0.5c0-0.28-0.22-0.5-0.5-0.5h-13C9.22,12,9,12.22,9,12.5
		C9,12.78,9.22,13,9.5,13z"/>
	<path fill="#3A1B11" d="M18.5,15h-9C9.22,15,9,15.22,9,15.5C9,15.78,9.22,16,9.5,16h9c0.28,0,0.5-0.22,0.5-0.5
		C19,15.22,18.78,15,18.5,15z"/>
	<path fill="#3A1B11" d="M18.5,18h-9C9.22,18,9,18.22,9,18.5C9,18.78,9.22,19,9.5,19h9c0.28,0,0.5-0.22,0.5-0.5
		C19,18.22,18.78,18,18.5,18z"/>
	<path fill="#3A1B11" d="M10.5,24C9.12,24,8,25.12,8,26.5c0,1.38,1.12,2.5,2.5,2.5c1.38,0,2.5-1.12,2.5-2.5
		C13,25.12,11.88,24,10.5,24z M10.5,28C9.67,28,9,27.33,9,26.5c0-0.83,0.67-1.5,1.5-1.5s1.5,0.67,1.5,1.5C12,27.33,11.33,28,10.5,28
		z"/>
	<path fill="#3A1B11" d="M28.78,17.18l2.91-5.04c0.51-0.88,0.4-2.07-0.4-2.7c-0.08-0.06-0.17-0.12-0.25-0.17
		c-0.95-0.55-2.18-0.22-2.73,0.73L27,12.26V2c0-1.1-0.9-2-2-2H7C5.9,0,5,0.9,5,2v2.75L1.03,7.04C0.08,7.59-0.25,8.81,0.3,9.77
		L5,17.91V30c0,1.1,0.9,2,2,2h18c1.1,0,2-0.9,2-2v-2.75l3.97-2.29c0.96-0.55,1.28-1.78,0.73-2.73L28.78,17.18z M5,15.91L1.17,9.27
		C1.04,9.04,1,8.77,1.07,8.51C1.14,8.25,1.3,8.04,1.53,7.9L5,5.9V15.91z M26,30c0,0.55-0.45,1-1,1H7c-0.55,0-1-0.45-1-1V2
		c0-0.55,0.45-1,1-1h18c0.55,0,1,0.45,1,1v11.99l-6.19,10.73l3.42,1.98c0.02,0.01,0.05,0.01,0.07-0.02l2.7-4.68V30z M22.9,25.35
		l-1.73-1l8-13.86c0.28-0.48,0.89-0.64,1.37-0.37c0.04,0.03,0.09,0.05,0.13,0.09c0.42,0.33,0.41,0.98,0.16,1.42L22.9,25.35z
		 M30.47,24.1l-3.47,2v-5.83l1.2-2.08l2.63,4.55C31.11,23.21,30.94,23.82,30.47,24.1z"/>
	<polygon fill="#3A1B11" points="20.04,28.32 22.77,27.59 19.31,25.59 	"/>
</g>
<g>
	<path fill="#92A9B9" d="M28.2,18.18L27,20.26v5.83l3.47-2c0.48-0.28,0.64-0.89,0.37-1.37L28.2,18.18z"/>
</g>
</svg>
