<?xml version="1.0" encoding="utf-8"?>
<!-- Generator: Adobe Illustrator 18.1.1, SVG Export Plug-In . SVG Version: 6.00 Build 0)  -->
<svg version="1.1" id="Слой_1" xmlns="http://www.w3.org/2000/svg" xmlns:xlink="http://www.w3.org/1999/xlink" x="0px" y="0px"
	 viewBox="0 0 32 32" enable-background="new 0 0 32 32" xml:space="preserve">
<rect x="0" y="0" fill="none" width="32" height="32"/>
<path fill="#D7C1B9" d="M31,31H1V16C1,7.73,7.73,1,16,1c8.27,0,15,6.73,15,15V31z"/>
<path fill="#AE8273" d="M17,1.05C16.67,1.03,16.34,1,16,1C7.73,1,1,7.73,1,16v15h2V16C3,8.07,9.2,1.57,17,1.05z"/>
<path fill="#B5BFC8" d="M16,6c1.64,0,3.19,0.4,4.56,1.1L16,15h0l-4.56-7.9C12.81,6.4,14.36,6,16,6z"/>
<path fill="#B5BFC8" d="M10.58,7.61L14.85,15h-8.8C6.36,11.9,8.09,9.22,10.58,7.61z"/>
<path fill="#B5BFC8" d="M17.15,15l4.27-7.39c2.49,1.61,4.22,4.29,4.53,7.39H17.15z"/>
<rect x="13" y="19" fill="#B5BFC8" width="6" height="4"/>
<rect x="13" y="24" fill="#B5BFC8" width="6" height="4"/>
<rect x="6" y="19" fill="#B5BFC8" width="6" height="4"/>
<rect x="6" y="24" fill="#B5BFC8" width="6" height="4"/>
<rect x="20" y="24" fill="#B5BFC8" width="6" height="4"/>
<rect x="20" y="19" fill="#B5BFC8" width="6" height="4"/>
<g>
	<path fill="#3A1B11" d="M16,5L16,5C9.95,5,5,9.95,5,16h22C27,9.95,22.05,5,16,5z M16,6c1.64,0,3.19,0.4,4.56,1.1L16,15h0l-4.56-7.9
		C12.81,6.4,14.36,6,16,6z M10.58,7.61L14.85,15h-8.8C6.36,11.9,8.09,9.22,10.58,7.61z M17.15,15l4.27-7.39
		c2.49,1.61,4.22,4.29,4.53,7.39H17.15z"/>
	<path fill="#3A1B11" d="M16,0L16,0C7.2,0,0,7.2,0,16v16h32V16C32,7.2,24.8,0,16,0z M31,31H1V16C1,7.73,7.73,1,16,1
		c8.27,0,15,6.73,15,15V31z"/>
	<path fill="#3A1B11" d="M20,18h-1v0h-6v0h-1v0H5v5h0v1h0v5h22V18L20,18L20,18z M19,19v4h-6v-4H19z M19,24v4h-6v-4H19z M6,19h6v4H6
		V19z M6,24h6v4H6V24z M20,28v-4h6v4H20z M26,19v4h-6v-4H26z"/>
</g>
<g>
	<polygon fill="#92A9B9" points="21.35,24 20,26.4 20,28 20.16,28 22.49,24 	"/>
	<polygon fill="#92A9B9" points="24.16,19 21.91,23 23.07,23 25.4,19 	"/>
</g>
<g>
	<polygon fill="#92A9B9" points="24.62,23 26,23 26,20.55 	"/>
	<polygon fill="#92A9B9" points="24.06,24 21.81,28 23.83,28 26,24.26 26,24 	"/>
</g>
<g>
	<polygon fill="#92A9B9" points="9.33,15 12.1,10.25 11.52,9.24 8.28,15 	"/>
	<path fill="#92A9B9" d="M12.09,8.23l0.59,1.02l1.82-3.12c-0.48,0.07-0.95,0.18-1.41,0.33L12.09,8.23z"/>
	<polygon fill="#92A9B9" points="7.72,16 7.62,16.17 7.98,16 	"/>
</g>
<g>
	<path fill="#92A9B9" d="M13.46,10.6l1.04,1.81l3.6-6.18C17.44,6.09,16.75,6.01,16.05,6L13.46,10.6z"/>
	<polygon fill="#92A9B9" points="13,15 13.93,13.41 12.89,11.62 10.99,15 	"/>
	<polygon fill="#92A9B9" points="10.43,16 10.33,16.17 10.93,16 	"/>
</g>
</svg>
