<?xml version="1.0" encoding="utf-8"?>
<!-- Generator: Adobe Illustrator 18.1.1, SVG Export Plug-In . SVG Version: 6.00 Build 0)  -->
<svg version="1.1" id="Слой_1" xmlns="http://www.w3.org/2000/svg" xmlns:xlink="http://www.w3.org/1999/xlink" x="0px" y="0px"
	 viewBox="0 0 32 32" enable-background="new 0 0 32 32" xml:space="preserve">
<rect x="0" y="0" fill="none" width="32" height="32"/>
<path fill="#DCA54D" d="M28.34,18.8c-0.09-0.46-0.5-0.8-0.98-0.8H21.4c-0.55,0-1,0.45-1,1v6.55c0,0,0,0,0.01,0
	C20.99,25.21,21.67,25,22.4,25c1.89,0,3.47,1.32,3.89,3.09c0.46-0.02,0.98-0.05,1.58-0.09H29c0.52,0,0.95-0.4,1-0.92L28.34,18.8z"/>
<path fill="#92A9B9" d="M27.36,18c0.47,0,0.88,0.34,0.98,0.8l0.84,4.2H25c-0.55,0-1-0.45-1-1v-4H27.36"/>
<path fill="#255372" d="M7.1,15L3.63,28H3c-0.31,0-0.6-0.14-0.79-0.39c-0.19-0.25-0.25-0.56-0.17-0.87l2.92-10.97
	C5.08,15.32,5.5,15,5.97,15H7.1"/>
<path fill="#D7C1B9" d="M19.4,26.38V19v-3c0-0.09-0.03-0.16-0.05-0.24L13.6,21.5l5.4,5.4C19.12,26.71,19.25,26.54,19.4,26.38z"/>
<path fill="#D7C1B9" d="M12.4,21.5c0-0.13,0.05-0.26,0.15-0.35l6.1-6.1C18.56,15.03,18.48,15,18.4,15H8.17L4.98,26.95
	C5.68,25.79,6.94,25,8.4,25c0.95,0,1.81,0.35,2.5,0.9c0.69-0.55,1.55-0.9,2.5-0.9c1.86,0,3.41,1.28,3.86,3h1.28
	c0.01-0.04,0.02-0.08,0.04-0.12l-6.03-6.03C12.45,21.76,12.4,21.63,12.4,21.5z"/>
<path fill="#DCA54D" d="M20.62,1c0.11,0,0.24,0.06,0.34,0.15l2.2,2.2c0.15,0.15,0.18,0.35,0.11,0.44L18.7,9.83
	c-0.03,0.04-0.08,0.06-0.15,0.06c-0.11,0-0.23-0.05-0.33-0.15l-3.68-3.68c-0.1-0.1-0.15-0.23-0.15-0.34
	c0.01-0.08,0.04-0.11,0.06-0.12l6.03-4.56C20.53,1.01,20.58,1,20.62,1"/>
<path fill="#AE8273" d="M22.4,27c1.1,0,2,0.9,2,2s-0.9,2-2,2s-2-0.9-2-2S21.3,27,22.4,27"/>
<path fill="#AE8273" d="M13.4,27c1.1,0,2,0.9,2,2s-0.9,2-2,2s-2-0.9-2-2S12.3,27,13.4,27"/>
<path fill="#92A9B9" d="M11.4,7.39c0.55,0,1,0.45,1,1s-0.45,1-1,1c-0.55,0-1-0.45-1-1S10.85,7.39,11.4,7.39"/>
<path fill="#92A9B9" d="M14.9,11c0.28,0,0.5,0.22,0.5,0.5c0,0.28-0.22,0.5-0.5,0.5c-0.28,0-0.5-0.22-0.5-0.5
	C14.4,11.22,14.62,11,14.9,11"/>
<path fill="#92A9B9" d="M7.9,11c0.28,0,0.5,0.22,0.5,0.5c0,0.28-0.22,0.5-0.5,0.5c-0.28,0-0.5-0.22-0.5-0.5
	C7.4,11.22,7.62,11,7.9,11"/>
<g>
	<path fill="#3A1B11" d="M13.4,26c-1.04,0-1.96,0.54-2.5,1.35C10.36,26.54,9.44,26,8.4,26c-1.66,0-3,1.34-3,3c0,1.66,1.34,3,3,3
		c1.04,0,1.96-0.54,2.5-1.35c0.54,0.81,1.46,1.35,2.5,1.35c1.66,0,3-1.34,3-3C16.4,27.34,15.05,26,13.4,26z M8.4,31
		c-1.1,0-2-0.9-2-2c0-1.1,0.9-2,2-2c1.1,0,2,0.9,2,2C10.4,30.1,9.5,31,8.4,31z M13.4,31c-1.1,0-2-0.9-2-2c0-1.1,0.9-2,2-2
		c1.1,0,2,0.9,2,2C15.4,30.1,14.5,31,13.4,31z"/>
	<path fill="#3A1B11" d="M22.4,26c-1.66,0-3,1.34-3,3c0,1.66,1.34,3,3,3s3-1.34,3-3C25.4,27.34,24.05,26,22.4,26z M22.4,31
		c-1.1,0-2-0.9-2-2c0-1.1,0.9-2,2-2c1.1,0,2,0.9,2,2C24.4,30.1,23.5,31,22.4,31z"/>
	<path fill="#3A1B11" d="M14.9,13c0.83,0,1.5-0.67,1.5-1.5c0-0.83-0.67-1.5-1.5-1.5s-1.5,0.67-1.5,1.5C13.4,12.33,14.07,13,14.9,13z
		 M14.9,11c0.28,0,0.5,0.22,0.5,0.5c0,0.28-0.22,0.5-0.5,0.5s-0.5-0.22-0.5-0.5C14.4,11.22,14.62,11,14.9,11z"/>
	<path fill="#3A1B11" d="M7.9,13c0.83,0,1.5-0.67,1.5-1.5c0-0.83-0.67-1.5-1.5-1.5s-1.5,0.67-1.5,1.5C6.4,12.33,7.07,13,7.9,13z
		 M7.9,11c0.28,0,0.5,0.22,0.5,0.5c0,0.28-0.22,0.5-0.5,0.5s-0.5-0.22-0.5-0.5C7.4,11.22,7.62,11,7.9,11z"/>
	<path fill="#3A1B11" d="M11.4,10.39c1.1,0,2-0.9,2-2c0-1.1-0.9-2-2-2c-1.1,0-2,0.9-2,2C9.4,9.49,10.3,10.39,11.4,10.39z M11.4,7.39
		c0.55,0,1,0.45,1,1c0,0.55-0.45,1-1,1s-1-0.45-1-1C10.4,7.83,10.85,7.39,11.4,7.39z"/>
	<path fill="#3A1B11" d="M17.4,29h1c0-0.35,0.06-0.68,0.14-1h-1.28C17.34,28.32,17.4,28.65,17.4,29z"/>
	<path fill="#3A1B11" d="M29.32,18.6c-0.02-0.08-0.04-0.16-0.07-0.24c-0.16-0.47-0.48-0.87-0.9-1.1C28.06,17.09,27.72,17,27.36,17
		H23h-1.6c-0.37,0-0.7,0.11-1,0.28V16c0-0.37-0.11-0.71-0.28-1.01l4.14-4.14c0.2-0.2,0.2-0.51,0-0.71l-2.59-2.59l2.39-3.17
		c0.38-0.5,0.29-1.25-0.2-1.75l-2.2-2.2C21.37,0.15,20.99,0,20.62,0c-0.26,0-0.52,0.08-0.73,0.24L13.85,4.8
		c-0.6,0.45-0.61,1.38-0.01,1.97l3.68,3.68c0.3,0.3,0.67,0.44,1.03,0.44c0.37,0,0.72-0.15,0.95-0.46l1.56-2.07l2.13,2.13l-3.79,3.79
		C19.11,14.11,18.77,14,18.4,14h-10h-1H5.97c-0.93,0-1.74,0.62-1.97,1.52L1.07,26.48C0.73,27.75,1.69,29,3,29h0.4h1h0l0,0l0.58-2.05
		L8.17,15H18.4c0.09,0,0.16,0.03,0.24,0.05l-6.1,6.1c-0.09,0.09-0.15,0.22-0.15,0.35s0.05,0.26,0.15,0.35l6.03,6.03
		c0,0,0-0.01,0-0.01c0.09-0.32,0.22-0.61,0.39-0.89c0.01-0.03,0.03-0.05,0.04-0.08l-5.4-5.4l5.74-5.74
		c0.02,0.08,0.05,0.16,0.05,0.24v3v7.38c0,0,0.01-0.01,0.01-0.01c0.13-0.15,0.27-0.28,0.42-0.41c0.02-0.02,0.04-0.04,0.07-0.05
		c0.15-0.13,0.32-0.24,0.49-0.34c0,0,0.01-0.01,0.01-0.01V19c0-0.55,0.45-1,1-1H23v4c0,1.1,0.9,2,2,2h4.38L30,27.08
		C29.95,27.6,29.52,28,29,28h-2.74c0.08,0.32,0.14,0.65,0.14,1H29c1.1,0,2-0.9,2-2L29.32,18.6z M20.96,6.84l-1.73-1.73
		c-0.2-0.2-0.51-0.2-0.71,0s-0.2,0.51,0,0.71l1.82,1.82L18.7,9.83c-0.03,0.04-0.08,0.06-0.15,0.06c-0.11,0-0.23-0.05-0.33-0.15
		l-3.68-3.68c-0.1-0.1-0.15-0.23-0.15-0.34c0.01-0.08,0.04-0.11,0.06-0.12l6.03-4.56C20.53,1.01,20.58,1,20.62,1
		c0.11,0,0.24,0.06,0.34,0.15l2.2,2.2c0.15,0.15,0.18,0.35,0.11,0.44L20.96,6.84z M3.63,28H3c-0.31,0-0.6-0.14-0.79-0.39
		c-0.19-0.25-0.25-0.56-0.17-0.87l2.92-10.97C5.08,15.32,5.5,15,5.97,15H7.1L3.63,28z M25,23c-0.55,0-1-0.45-1-1v-4h3.36
		c0.12,0,0.23,0.02,0.34,0.06s0.21,0.1,0.29,0.17c0.17,0.14,0.3,0.34,0.35,0.57l0.84,4.2H25z"/>
</g>
<path fill="#AE8273" d="M8.4,27c1.1,0,2,0.9,2,2s-0.9,2-2,2s-2-0.9-2-2S7.3,27,8.4,27"/>
</svg>
