<?xml version="1.0" encoding="utf-8"?>
<!-- Generator: Adobe Illustrator 18.1.1, SVG Export Plug-In . SVG Version: 6.00 Build 0)  -->
<svg version="1.1" id="Слой_1" xmlns="http://www.w3.org/2000/svg" xmlns:xlink="http://www.w3.org/1999/xlink" x="0px" y="0px"
	 viewBox="0 0 32 32" enable-background="new 0 0 32 32" xml:space="preserve">
<rect x="0" y="0" fill="none" width="32" height="32"/>
<path fill="#D7C1B9" d="M29,29V3h1c0.55,0,1,0.45,1,1v24c0,0.55-0.45,1-1,1H29z"/>
<path fill="#D7C1B9" d="M27,31h-6c-0.55,0-1-0.45-1-1v-1V3V2c0-0.55,0.45-1,1-1h6c0.55,0,1,0.45,1,1v1v26v1C28,30.55,27.55,31,27,31
	z"/>
<path fill="#D7C1B9" d="M1,4c0-0.55,0.45-1,1-1h17v26H2c-0.55,0-1-0.45-1-1V4z"/>
<path fill="#3A1B11" d="M0,4l0,24c0,1.1,0.9,2,2,2h17c0,1.1,0.9,2,2,2h6c1.1,0,2-0.9,2-2h1c1.1,0,2-0.9,2-2V4c0-1.1-0.9-2-2-2h-1
	c0-1.1-0.9-2-2-2l-6,0c-1.1,0-2,0.9-2,2H2C0.9,2,0,2.9,0,4z M29,29V3h1c0.55,0,1,0.45,1,1v24c0,0.55-0.45,1-1,1H29z M20,30v-1V3V2
	c0-0.55,0.45-1,1-1h6c0.55,0,1,0.45,1,1v1v26v1c0,0.55-0.45,1-1,1h-6C20.45,31,20,30.55,20,30z M1,4c0-0.55,0.45-1,1-1h17v26H2
	c-0.55,0-1-0.45-1-1V4z"/>
<path fill="#AE8273" d="M21,31h1V1h-1c-0.55,0-1,0.45-1,1v1v26v1C20,30.55,20.45,31,21,31z"/>
<g>
	<path fill="#3A1B11" d="M14,5H6C4.9,5,4,5.9,4,7v4.83c0,1.1,0.9,2,2,2h8c1.1,0,2-0.9,2-2V7C16,5.9,15.1,5,14,5z M15,11.83
		c0,0.55-0.45,1-1,1H6c-0.55,0-1-0.45-1-1V7c0-0.55,0.45-1,1-1h8c0.55,0,1,0.45,1,1V11.83z"/>
	<path fill="#3A1B11" d="M5.5,16C4.67,16,4,16.67,4,17.5S4.67,19,5.5,19S7,18.33,7,17.5S6.33,16,5.5,16z M5.5,18
		C5.22,18,5,17.78,5,17.5S5.22,17,5.5,17S6,17.22,6,17.5S5.78,18,5.5,18z"/>
	<path fill="#3A1B11" d="M14.5,16c-0.83,0-1.5,0.67-1.5,1.5s0.67,1.5,1.5,1.5s1.5-0.67,1.5-1.5S15.33,16,14.5,16z M14.5,18
		c-0.28,0-0.5-0.22-0.5-0.5s0.22-0.5,0.5-0.5s0.5,0.22,0.5,0.5S14.78,18,14.5,18z"/>
	<path fill="#3A1B11" d="M10,16c-0.83,0-1.5,0.67-1.5,1.5S9.17,19,10,19s1.5-0.67,1.5-1.5S10.83,16,10,16z M10,18
		c-0.28,0-0.5-0.22-0.5-0.5S9.72,17,10,17s0.5,0.22,0.5,0.5S10.28,18,10,18z"/>
	<path fill="#3A1B11" d="M5.5,20C4.67,20,4,20.67,4,21.5S4.67,23,5.5,23S7,22.33,7,21.5S6.33,20,5.5,20z M5.5,22
		C5.22,22,5,21.78,5,21.5S5.22,21,5.5,21S6,21.22,6,21.5S5.78,22,5.5,22z"/>
	<path fill="#3A1B11" d="M14.5,20c-0.83,0-1.5,0.67-1.5,1.5s0.67,1.5,1.5,1.5s1.5-0.67,1.5-1.5S15.33,20,14.5,20z M14.5,22
		c-0.28,0-0.5-0.22-0.5-0.5s0.22-0.5,0.5-0.5s0.5,0.22,0.5,0.5S14.78,22,14.5,22z"/>
	<path fill="#3A1B11" d="M10,20c-0.83,0-1.5,0.67-1.5,1.5S9.17,23,10,23s1.5-0.67,1.5-1.5S10.83,20,10,20z M10,22
		c-0.28,0-0.5-0.22-0.5-0.5S9.72,21,10,21s0.5,0.22,0.5,0.5S10.28,22,10,22z"/>
	<path fill="#3A1B11" d="M5.5,24C4.67,24,4,24.67,4,25.5S4.67,27,5.5,27S7,26.33,7,25.5S6.33,24,5.5,24z M5.5,26
		C5.22,26,5,25.78,5,25.5S5.22,25,5.5,25S6,25.22,6,25.5S5.78,26,5.5,26z"/>
	<path fill="#3A1B11" d="M14.5,24c-0.83,0-1.5,0.67-1.5,1.5s0.67,1.5,1.5,1.5s1.5-0.67,1.5-1.5S15.33,24,14.5,24z M14.5,26
		c-0.28,0-0.5-0.22-0.5-0.5s0.22-0.5,0.5-0.5s0.5,0.22,0.5,0.5S14.78,26,14.5,26z"/>
	<path fill="#3A1B11" d="M10,24c-0.83,0-1.5,0.67-1.5,1.5S9.17,27,10,27s1.5-0.67,1.5-1.5S10.83,24,10,24z M10,26
		c-0.28,0-0.5-0.22-0.5-0.5S9.72,25,10,25s0.5,0.22,0.5,0.5S10.28,26,10,26z"/>
	<path fill="#B5BFC8" d="M15,11.83c0,0.55-0.45,1-1,1H6c-0.55,0-1-0.45-1-1V7c0-0.55,0.45-1,1-1h8c0.55,0,1,0.45,1,1V11.83z"/>
	<g>
		<path fill="#DCA54D" d="M5.5,18C5.22,18,5,17.78,5,17.5S5.22,17,5.5,17S6,17.22,6,17.5S5.78,18,5.5,18z"/>
		<path fill="#DCA54D" d="M14.5,18c-0.28,0-0.5-0.22-0.5-0.5s0.22-0.5,0.5-0.5s0.5,0.22,0.5,0.5S14.78,18,14.5,18z"/>
		<path fill="#DCA54D" d="M10,18c-0.28,0-0.5-0.22-0.5-0.5S9.72,17,10,17s0.5,0.22,0.5,0.5S10.28,18,10,18z"/>
		<path fill="#DCA54D" d="M5.5,22C5.22,22,5,21.78,5,21.5S5.22,21,5.5,21S6,21.22,6,21.5S5.78,22,5.5,22z"/>
		<path fill="#DCA54D" d="M14.5,22c-0.28,0-0.5-0.22-0.5-0.5s0.22-0.5,0.5-0.5s0.5,0.22,0.5,0.5S14.78,22,14.5,22z"/>
		<path fill="#DCA54D" d="M10,22c-0.28,0-0.5-0.22-0.5-0.5S9.72,21,10,21s0.5,0.22,0.5,0.5S10.28,22,10,22z"/>
		<path fill="#DCA54D" d="M5.5,26C5.22,26,5,25.78,5,25.5S5.22,25,5.5,25S6,25.22,6,25.5S5.78,26,5.5,26z"/>
		<path fill="#DCA54D" d="M14.5,26c-0.28,0-0.5-0.22-0.5-0.5s0.22-0.5,0.5-0.5s0.5,0.22,0.5,0.5S14.78,26,14.5,26z"/>
		<path fill="#DCA54D" d="M10,26c-0.28,0-0.5-0.22-0.5-0.5S9.72,25,10,25s0.5,0.22,0.5,0.5S10.28,26,10,26z"/>
	</g>
	<g>
		<g>
			<polygon fill="#92A9B9" points="8.72,6 7.72,6 5,9.62 5,10.95 			"/>
		</g>
		<path fill="#92A9B9" d="M9.72,6l-4.65,6.19c0.14,0.38,0.5,0.64,0.93,0.64h1.59L12.72,6H9.72z"/>
	</g>
</g>
<path fill="#AE8273" d="M2,29h1V3H2C1.45,3,1,3.45,1,4v24C1,28.55,1.45,29,2,29z"/>
</svg>
