<?xml version="1.0" encoding="utf-8"?>
<!-- Generator: Adobe Illustrator 18.1.1, SVG Export Plug-In . SVG Version: 6.00 Build 0)  -->
<svg version="1.1" id="Слой_1" xmlns="http://www.w3.org/2000/svg" xmlns:xlink="http://www.w3.org/1999/xlink" x="0px" y="0px"
	 viewBox="0 0 32 32" enable-background="new 0 0 32 32" xml:space="preserve">
<rect x="0" fill="none" width="32" height="32"/>
<g>
	<path fill="#92A9B9" d="M22,1c1.1,0,2,0.9,2,2v26c0,1.1-0.9,2-2,2s-2-0.9-2-2V3C20,1.9,20.9,1,22,1"/>
</g>
<path fill="#255372" d="M23,30c-1.1,0-2-0.9-2-2V2c0-0.29,0.07-0.57,0.18-0.82C20.49,1.49,20,2.19,20,3v26c0,1.1,0.9,2,2,2
	c0.81,0,1.51-0.49,1.82-1.18C23.57,29.93,23.29,30,23,30z"/>
<g>
	<path fill="#92A9B9" d="M14,1c1.1,0,2,0.9,2,2v26c0,1.1-0.9,2-2,2s-2-0.9-2-2V3C12,1.9,12.9,1,14,1"/>
</g>
<path fill="#255372" d="M15,30c-1.1,0-2-0.9-2-2V2c0-0.29,0.07-0.57,0.18-0.82C12.49,1.49,12,2.19,12,3v26c0,1.1,0.9,2,2,2
	c0.81,0,1.51-0.49,1.82-1.18C15.57,29.93,15.29,30,15,30z"/>
<g>
	<path fill="#92A9B9" d="M6,1c1.1,0,2,0.9,2,2v26c0,1.1-0.9,2-2,2s-2-0.9-2-2V3C4,1.9,4.9,1,6,1"/>
</g>
<path fill="#255372" d="M7,30c-1.1,0-2-0.9-2-2V2c0-0.29,0.07-0.57,0.18-0.82C4.49,1.49,4,2.19,4,3v26c0,1.1,0.9,2,2,2
	c0.81,0,1.51-0.49,1.82-1.18C7.57,29.93,7.29,30,7,30z"/>
<path fill="#DCA54D" d="M28.5,10c1.38,0,2.5,1.12,2.5,2.5S29.88,15,28.5,15S26,13.88,26,12.5S27.12,10,28.5,10"/>
<path fill="#DB7831" d="M29.5,14.08c-1.38,0-2.5-1.12-2.5-2.5c0-0.48,0.14-0.92,0.38-1.3C26.56,10.69,26,11.53,26,12.5
	c0,1.38,1.12,2.5,2.5,2.5c0.9,0,1.68-0.48,2.12-1.2C30.28,13.98,29.91,14.08,29.5,14.08z"/>
<path fill="#3A1B11" d="M30,9.35V8.63c0-2-1.63-3.63-3.63-3.63H25V3c0-1.65-1.35-3-3-3c-1.65,0-3,1.35-3,3v2h-2V3c0-1.65-1.35-3-3-3
	c-1.65,0-3,1.35-3,3v2H9V3c0-1.65-1.35-3-3-3C4.35,0,3,1.35,3,3v2H0v3h3v16H0v3h3v2c0,1.65,1.35,3,3,3c1.65,0,3-1.35,3-3v-2h2v2
	c0,1.65,1.35,3,3,3c1.65,0,3-1.35,3-3v-2h2v2c0,1.65,1.35,3,3,3c1.65,0,3-1.35,3-3v-2h1.37c2,0,3.63-1.63,3.63-3.63v-7.72
	c1.18-0.56,2-1.76,2-3.15S31.18,9.91,30,9.35z M1,7V6h2v1H1z M1,26v-1h2v1H1z M8,29c0,1.1-0.9,2-2,2c-1.1,0-2-0.9-2-2V3
	c0-1.1,0.9-2,2-2c1.1,0,2,0.9,2,2V29z M11,6v1H9V6H11z M11,8v16H9V8H11z M9,26v-1h2v1H9z M16,29c0,1.1-0.9,2-2,2c-1.1,0-2-0.9-2-2V3
	c0-1.1,0.9-2,2-2c1.1,0,2,0.9,2,2V29z M19,6v1h-2V6H19z M19,8v16h-2V8H19z M17,26v-1h2v1H17z M24,29c0,1.1-0.9,2-2,2
	c-1.1,0-2-0.9-2-2V3c0-1.1,0.9-2,2-2c1.1,0,2,0.9,2,2V29z M26.37,6C27.82,6,29,7.18,29,8.63v0.43C28.84,9.03,28.67,9,28.5,9
	c-0.17,0-0.34,0.03-0.5,0.05V8.63C28,7.73,27.27,7,26.37,7H25V6H26.37z M25,8h1.37C26.71,8,27,8.29,27,8.63v0.72
	c-1.18,0.56-2,1.76-2,3.15s0.82,2.59,2,3.15v7.72c0,0.34-0.29,0.63-0.63,0.63H25V12.5V8z M29,23.38c0,1.45-1.18,2.63-2.63,2.63H25
	v-1h1.37c0.9,0,1.63-0.73,1.63-1.63v-7.43c0.16,0.02,0.33,0.05,0.5,0.05c0.17,0,0.34-0.03,0.5-0.05V23.38z M28.5,15
	c-1.38,0-2.5-1.12-2.5-2.5s1.12-2.5,2.5-2.5c0.43,0,0.82,0.12,1.18,0.31l-1.56,1.87c-0.18,0.21-0.15,0.53,0.06,0.7
	C28.27,12.96,28.39,13,28.5,13c0.14,0,0.29-0.06,0.38-0.18l1.56-1.87C30.79,11.38,31,11.91,31,12.5C31,13.88,29.88,15,28.5,15z"/>
<g>
	<rect x="9" y="6" fill="#AE8273" width="2" height="1"/>
	<rect x="17" y="6" fill="#AE8273" width="2" height="1"/>
	<rect x="1" y="6" fill="#AE8273" width="2" height="1"/>
	<rect x="9" y="25" fill="#AE8273" width="2" height="1"/>
	<path fill="#AE8273" d="M28,15.95v7.43c0,0.9-0.73,1.63-1.63,1.63H25v1h1.37c1.45,0,2.63-1.18,2.63-2.63v-7.43
		C28.84,15.97,28.67,16,28.5,16C28.33,16,28.16,15.97,28,15.95z"/>
	<rect x="1" y="25" fill="#AE8273" width="2" height="1"/>
	<rect x="17" y="25" fill="#AE8273" width="2" height="1"/>
	<path fill="#AE8273" d="M26.37,7C27.27,7,28,7.73,28,8.63v0.43C28.16,9.03,28.33,9,28.5,9c0.17,0,0.34,0.03,0.5,0.05V8.63
		C29,7.18,27.82,6,26.37,6H25v1H26.37z"/>
</g>
</svg>
