<?xml version="1.0" encoding="utf-8"?>
<!-- Generator: Adobe Illustrator 18.1.1, SVG Export Plug-In . SVG Version: 6.00 Build 0)  -->
<svg version="1.1" id="Слой_1" xmlns="http://www.w3.org/2000/svg" xmlns:xlink="http://www.w3.org/1999/xlink" x="0px" y="0px"
	 viewBox="0 0 32 32" enable-background="new 0 0 32 32" xml:space="preserve">
<rect x="0" y="0" fill="none" width="32" height="32"/>
<path fill="#D7C1B9" d="M30,3c0.55,0,1,0.45,1,1v24c0,0.55-0.45,1-1,1H2c-0.55,0-1-0.45-1-1V4c0-0.55,0.45-1,1-1H30"/>
<path fill="#92A9B9" d="M27,13c0.55,0,1,0.45,1,1v11c0,0.55-0.45,1-1,1h-5c-0.55,0-1-0.45-1-1V14c0-0.55,0.45-1,1-1H27"/>
<path fill="#AE8273" d="M2,29h5V3H2C1.45,3,1,3.45,1,4v24C1,28.55,1.45,29,2,29z"/>
<path fill="#B5BFC8" d="M10,9c3.86,0,7,3.14,7,7s-3.14,7-7,7s-7-3.14-7-7S6.14,9,10,9"/>
<path fill="#92A9B9" d="M12,22c-3.86,0-7-3.14-7-7c0-2.34,1.16-4.42,2.94-5.69C5.08,10.19,3,12.86,3,16c0,3.86,3.14,7,7,7
	c1.52,0,2.92-0.49,4.06-1.31C13.41,21.89,12.72,22,12,22z"/>
<path fill="#3A1B11" d="M27,6.85h-1.29l0.91-0.91c0.2-0.2,0.2-0.51,0-0.71s-0.51-0.2-0.71,0L25,6.14V4.85c0-0.28-0.22-0.5-0.5-0.5
	S24,4.57,24,4.85v1.29l-0.92-0.91c-0.2-0.2-0.51-0.2-0.71,0s-0.2,0.51,0,0.71l0.91,0.91H22c-0.28,0-0.5,0.22-0.5,0.5
	s0.22,0.5,0.5,0.5h1.29l-0.91,0.91c-0.2,0.2-0.2,0.51,0,0.71c0.1,0.1,0.23,0.15,0.35,0.15s0.26-0.05,0.35-0.15L24,8.55v1.29
	c0,0.28,0.22,0.5,0.5,0.5s0.5-0.22,0.5-0.5V8.55l0.91,0.91c0.1,0.1,0.23,0.15,0.35,0.15s0.26-0.05,0.35-0.15
	c0.2-0.2,0.2-0.51,0-0.71l-0.91-0.91H27c0.28,0,0.5-0.22,0.5-0.5S27.28,6.85,27,6.85z"/>
<g>
	<path fill="#3A1B11" d="M30,2H2C0.9,2,0,2.9,0,4v24c0,1.1,0.9,2,2,2h28c1.1,0,2-0.9,2-2V4C32,2.9,31.1,2,30,2z M31,28
		c0,0.55-0.45,1-1,1H2c-0.55,0-1-0.45-1-1V4c0-0.55,0.45-1,1-1h28c0.55,0,1,0.45,1,1V28z"/>
	<path fill="#3A1B11" d="M10,8c-4.42,0-8,3.58-8,8s3.58,8,8,8s8-3.58,8-8S14.42,8,10,8z M10,23c-3.86,0-7-3.14-7-7s3.14-7,7-7
		s7,3.14,7,7S13.86,23,10,23z"/>
	<path fill="#3A1B11" d="M14.47,15.23c-0.13-0.07-0.25-0.11-0.36-0.11c-0.73,0-1.23,1.32-2.2,1.45C11.96,16.39,12,16.2,12,16
		c0-0.46-0.16-0.88-0.42-1.22c1.34-0.36,1.16-1.27,1.16-2.34c0-1.38-1.23-2.5-2.74-2.5c-1.51,0-2.74,1.12-2.74,2.5
		c0,1.12,1.81,0.63,2.49,1.58c-0.69,0.09-1.26,0.52-1.55,1.12c-0.41-0.43-0.76-0.6-1.11-0.6c-0.52,0-1,0.36-1.57,0.69
		c-1.2,0.69-1.55,2.31-0.8,3.62c0.53,0.91,1.45,1.43,2.37,1.43c0.4,0,0.8-0.1,1.16-0.31c0.94-0.54-0.28-1.8,0.09-2.84
		C8.71,17.66,9.32,18,10,18c0.08,0,0.17-0.01,0.25-0.02c-0.24,1.19,0.6,1.49,1.49,2c0.36,0.21,0.76,0.31,1.16,0.31
		c0.92,0,1.84-0.52,2.37-1.43C16.03,17.54,15.67,15.92,14.47,15.23z M7.51,18.83c0.03,0.11,0.07,0.25,0.1,0.36
		c-0.16,0.06-0.33,0.1-0.5,0.1c-0.6,0-1.17-0.36-1.5-0.93c-0.48-0.83-0.29-1.84,0.43-2.26c0.11-0.06,0.21-0.12,0.31-0.19
		c0.27-0.16,0.61-0.37,0.76-0.37c0,0,0.21,0.01,0.66,0.62C7,17.1,7.33,18.23,7.51,18.83z M8.63,12.36
		c-0.11-0.03-0.25-0.06-0.36-0.09c0.1-0.74,0.84-1.32,1.73-1.32c0.96,0,1.74,0.67,1.74,1.5c0,0.12,0,0.24,0,0.36
		c0.01,0.32,0.01,0.77-0.07,0.86c-0.02,0.02-0.19,0.17-0.85,0.24C10.38,12.79,9.24,12.51,8.63,12.36z M10.92,16.39
		C10.92,16.39,10.92,16.39,10.92,16.39C10.77,16.75,10.41,17,10,17c-0.55,0-1-0.45-1-1s0.45-1,1-1s1,0.45,1,1
		C11,16.14,10.97,16.27,10.92,16.39z M14.4,18.36c-0.33,0.58-0.91,0.93-1.5,0.93c-0.24,0-0.46-0.06-0.66-0.18
		c-0.11-0.06-0.21-0.12-0.32-0.18c-0.28-0.16-0.67-0.37-0.71-0.49c-0.01-0.03-0.05-0.25,0.22-0.86c0.11,0.02,0.22,0.02,0.32,0.02
		c1.01,0,1.67-0.69,2.11-1.14c0.08-0.08,0.18-0.19,0.26-0.26c0.25,0.2,0.43,0.48,0.51,0.83C14.72,17.47,14.64,17.94,14.4,18.36z"/>
	<path fill="#3A1B11" d="M27,12h-5c-1.1,0-2,0.9-2,2v11c0,1.1,0.9,2,2,2h5c1.1,0,2-0.9,2-2V14C29,12.9,28.1,12,27,12z M28,25
		c0,0.55-0.45,1-1,1h-5c-0.55,0-1-0.45-1-1V14c0-0.55,0.45-1,1-1h5c0.55,0,1,0.45,1,1V25z"/>
	<path fill="#3A1B11" d="M26,14h-3c-0.28,0-0.5,0.22-0.5,0.5S22.72,15,23,15h3c0.28,0,0.5-0.22,0.5-0.5S26.28,14,26,14z"/>
	<path fill="#3A1B11" d="M26,16h-3c-0.28,0-0.5,0.22-0.5,0.5S22.72,17,23,17h3c0.28,0,0.5-0.22,0.5-0.5S26.28,16,26,16z"/>
	<path fill="#3A1B11" d="M26,18h-3c-0.28,0-0.5,0.22-0.5,0.5S22.72,19,23,19h3c0.28,0,0.5-0.22,0.5-0.5S26.28,18,26,18z"/>
	<path fill="#3A1B11" d="M26,20h-3c-0.28,0-0.5,0.22-0.5,0.5S22.72,21,23,21h3c0.28,0,0.5-0.22,0.5-0.5S26.28,20,26,20z"/>
	<path fill="#3A1B11" d="M26,22h-3c-0.28,0-0.5,0.22-0.5,0.5S22.72,23,23,23h3c0.28,0,0.5-0.22,0.5-0.5S26.28,22,26,22z"/>
	<path fill="#3A1B11" d="M26,24h-3c-0.28,0-0.5,0.22-0.5,0.5S22.72,25,23,25h3c0.28,0,0.5-0.22,0.5-0.5S26.28,24,26,24z"/>
</g>
<path fill="#255372" d="M14.12,16.2c0.25,0.2,0.43,0.48,0.51,0.83c0.1,0.44,0.02,0.91-0.22,1.33c-0.33,0.58-0.91,0.93-1.5,0.93
	c-0.24,0-0.46-0.06-0.66-0.18c-0.11-0.06-0.21-0.12-0.32-0.18c-0.28-0.16-0.67-0.37-0.71-0.49c-0.01-0.03-0.05-0.25,0.22-0.86
	c0.11,0.02,0.22,0.02,0.32,0.02c1.01,0,1.67-0.69,2.11-1.14C13.94,16.38,14.04,16.28,14.12,16.2"/>
<path fill="#255372" d="M7.09,15.54c0,0,0.21,0.01,0.66,0.62C7,17.1,7.33,18.23,7.51,18.83c0.03,0.11,0.07,0.25,0.1,0.36
	c-0.16,0.06-0.33,0.1-0.5,0.1c-0.6,0-1.17-0.36-1.5-0.93c-0.48-0.83-0.29-1.84,0.43-2.26c0.11-0.06,0.21-0.12,0.31-0.19
	C6.61,15.75,6.95,15.54,7.09,15.54"/>
<path fill="#255372" d="M10,10.95c0.96,0,1.74,0.67,1.74,1.5c0,0.12,0,0.24,0,0.36c0.01,0.32,0.01,0.77-0.07,0.86
	c-0.02,0.02-0.19,0.17-0.85,0.24c-0.44-1.12-1.58-1.4-2.19-1.54c-0.11-0.03-0.25-0.06-0.36-0.09C8.37,11.52,9.11,10.95,10,10.95"/>
<path fill="#DCA54D" d="M10,15c0.55,0,1,0.45,1,1s-0.45,1-1,1s-1-0.45-1-1S9.45,15,10,15"/>
<g>
	<path fill="#3A1B11" d="M30,2H2C0.9,2,0,2.9,0,4v24c0,1.1,0.9,2,2,2h28c1.1,0,2-0.9,2-2V4C32,2.9,31.1,2,30,2z M31,28
		c0,0.55-0.45,1-1,1H2c-0.55,0-1-0.45-1-1V4c0-0.55,0.45-1,1-1h28c0.55,0,1,0.45,1,1V28z"/>
	<path fill="#3A1B11" d="M10,8c-4.42,0-8,3.58-8,8s3.58,8,8,8s8-3.58,8-8S14.42,8,10,8z M10,23c-3.86,0-7-3.14-7-7s3.14-7,7-7
		s7,3.14,7,7S13.86,23,10,23z"/>
	<path fill="#3A1B11" d="M14.47,15.23c-0.13-0.07-0.25-0.11-0.36-0.11c-0.73,0-1.23,1.32-2.2,1.45C11.96,16.39,12,16.2,12,16
		c0-0.46-0.16-0.88-0.42-1.22c1.34-0.36,1.16-1.27,1.16-2.34c0-1.38-1.23-2.5-2.74-2.5c-1.51,0-2.74,1.12-2.74,2.5
		c0,1.12,1.81,0.63,2.49,1.58c-0.69,0.09-1.26,0.52-1.55,1.12c-0.41-0.43-0.76-0.6-1.11-0.6c-0.52,0-1,0.36-1.57,0.69
		c-1.2,0.69-1.55,2.31-0.8,3.62c0.53,0.91,1.45,1.43,2.37,1.43c0.4,0,0.8-0.1,1.16-0.31c0.94-0.54-0.28-1.8,0.09-2.84
		C8.71,17.66,9.32,18,10,18c0.08,0,0.17-0.01,0.25-0.02c-0.24,1.19,0.6,1.49,1.49,2c0.36,0.21,0.76,0.31,1.16,0.31
		c0.92,0,1.84-0.52,2.37-1.43C16.03,17.54,15.67,15.92,14.47,15.23z M7.51,18.83c0.03,0.11,0.07,0.25,0.1,0.36
		c-0.16,0.06-0.33,0.1-0.5,0.1c-0.6,0-1.17-0.36-1.5-0.93c-0.48-0.83-0.29-1.84,0.43-2.26c0.11-0.06,0.21-0.12,0.31-0.19
		c0.27-0.16,0.61-0.37,0.76-0.37c0,0,0.21,0.01,0.66,0.62C7,17.1,7.33,18.23,7.51,18.83z M8.63,12.36
		c-0.11-0.03-0.25-0.06-0.36-0.09c0.1-0.74,0.84-1.32,1.73-1.32c0.96,0,1.74,0.67,1.74,1.5c0,0.12,0,0.24,0,0.36
		c0.01,0.32,0.01,0.77-0.07,0.86c-0.02,0.02-0.19,0.17-0.85,0.24C10.38,12.79,9.24,12.51,8.63,12.36z M10.92,16.39
		C10.92,16.39,10.92,16.39,10.92,16.39C10.77,16.75,10.41,17,10,17c-0.55,0-1-0.45-1-1s0.45-1,1-1s1,0.45,1,1
		C11,16.14,10.97,16.27,10.92,16.39z M14.4,18.36c-0.33,0.58-0.91,0.93-1.5,0.93c-0.24,0-0.46-0.06-0.66-0.18
		c-0.11-0.06-0.21-0.12-0.32-0.18c-0.28-0.16-0.67-0.37-0.71-0.49c-0.01-0.03-0.05-0.25,0.22-0.86c0.11,0.02,0.22,0.02,0.32,0.02
		c1.01,0,1.67-0.69,2.11-1.14c0.08-0.08,0.18-0.19,0.26-0.26c0.25,0.2,0.43,0.48,0.51,0.83C14.72,17.47,14.64,17.94,14.4,18.36z"/>
	<path fill="#3A1B11" d="M27,12h-5c-1.1,0-2,0.9-2,2v11c0,1.1,0.9,2,2,2h5c1.1,0,2-0.9,2-2V14C29,12.9,28.1,12,27,12z M28,25
		c0,0.55-0.45,1-1,1h-5c-0.55,0-1-0.45-1-1V14c0-0.55,0.45-1,1-1h5c0.55,0,1,0.45,1,1V25z"/>
	<path fill="#3A1B11" d="M26,14h-3c-0.28,0-0.5,0.22-0.5,0.5S22.72,15,23,15h3c0.28,0,0.5-0.22,0.5-0.5S26.28,14,26,14z"/>
	<path fill="#3A1B11" d="M26,16h-3c-0.28,0-0.5,0.22-0.5,0.5S22.72,17,23,17h3c0.28,0,0.5-0.22,0.5-0.5S26.28,16,26,16z"/>
	<path fill="#3A1B11" d="M26,18h-3c-0.28,0-0.5,0.22-0.5,0.5S22.72,19,23,19h3c0.28,0,0.5-0.22,0.5-0.5S26.28,18,26,18z"/>
	<path fill="#3A1B11" d="M26,20h-3c-0.28,0-0.5,0.22-0.5,0.5S22.72,21,23,21h3c0.28,0,0.5-0.22,0.5-0.5S26.28,20,26,20z"/>
	<path fill="#3A1B11" d="M26,22h-3c-0.28,0-0.5,0.22-0.5,0.5S22.72,23,23,23h3c0.28,0,0.5-0.22,0.5-0.5S26.28,22,26,22z"/>
	<path fill="#3A1B11" d="M26,24h-3c-0.28,0-0.5,0.22-0.5,0.5S22.72,25,23,25h3c0.28,0,0.5-0.22,0.5-0.5S26.28,24,26,24z"/>
</g>
</svg>
