<?xml version="1.0" encoding="utf-8"?>
<!-- Generator: Adobe Illustrator 18.1.1, SVG Export Plug-In . SVG Version: 6.00 Build 0)  -->
<svg version="1.1" id="Слой_1" xmlns="http://www.w3.org/2000/svg" xmlns:xlink="http://www.w3.org/1999/xlink" x="0px" y="0px"
	 viewBox="0 0 32 32" enable-background="new 0 0 32 32" xml:space="preserve">
<rect x="0" y="0" fill="none" width="32" height="32"/>
<path fill="#DCA54D" d="M30,1c-0.55,0-1,0.45-1,1v28c0,0.55,0.45,1,1,1s1-0.45,1-1V2C31,1.45,30.55,1,30,1z"/>
<path fill="#3A1B11" d="M30,0c-1.1,0-2,0.9-2,2v28c0,1.1,0.9,2,2,2s2-0.9,2-2V2C32,0.9,31.1,0,30,0z M31,30c0,0.55-0.45,1-1,1
	s-1-0.45-1-1V2c0-0.55,0.45-1,1-1s1,0.45,1,1V30z M26.5,7H24V6c0-0.55-0.45-1-1-1h-1.28C21.38,4.4,20.74,4,20,4h-4.28
	C15.38,3.4,14.74,3,14,3H9.5c0,0,0,0,0,0s0,0,0,0h-2c0,0,0,0,0,0s0,0,0,0h-2c0,0,0,0,0,0s0,0,0,0h-2c0,0,0,0,0,0s0,0,0,0H2
	C0.9,3,0,3.9,0,5v5c0,1.1,0.9,2,2,2v11.5h8V17c2.76,0,5-2.24,5-5c0-0.09-0.02-0.17-0.03-0.26c0.31-0.18,0.57-0.43,0.75-0.74H17v10
	c0,0.55,0.45,1,1,1h1c0.55,0,1-0.45,1-1V11c0.74,0,1.38-0.4,1.72-1H23c0.55,0,1-0.45,1-1V8h2.5C26.78,8,27,7.78,27,7.5
	S26.78,7,26.5,7z M9,13.72v3.18v5.6H3V12h6V13.72z M10,16v-1c1.65,0,3-1.35,3-3h1C14,14.21,12.21,16,10,16z M10,14v-2h2
	C12,13.1,11.1,14,10,14z M15,10c0,0.55-0.45,1-1,1h-2.28l0,0H2c-0.55,0-1-0.45-1-1V5c0-0.55,0.45-1,1-1h1v3.5C3,7.78,3.22,8,3.5,8
	S4,7.78,4,7.5V4h1v3.5C5,7.78,5.22,8,5.5,8S6,7.78,6,7.5V4h1v3.5C7,7.78,7.22,8,7.5,8S8,7.78,8,7.5V4h1v3.5C9,7.78,9.22,8,9.5,8
	S10,7.78,10,7.5V4h4c0.55,0,1,0.45,1,1V10z M19,21h-1V11h1V21z M21,9c0,0.55-0.45,1-1,1h-3h-1V5h4c0.55,0,1,0.45,1,1V9z M23,9h-1V6
	h1V9z M11,24.5H2v3c0,1.1,0.9,2,2,2h7c1.1,0,2-0.9,2-2v-1C13,25.4,12.1,24.5,11,24.5z M12,27.5c0,0.55-0.45,1-1,1H4
	c-0.55,0-1-0.45-1-1v-2h8c0.55,0,1,0.45,1,1V27.5z"/>
<path fill="#D7C1B9" d="M1,10V5c0-0.55,0.45-1,1-1h1v3.5C3,7.78,3.22,8,3.5,8S4,7.78,4,7.5V4h1v3.5C5,7.78,5.22,8,5.5,8
	S6,7.78,6,7.5V4h1v3.5C7,7.78,7.22,8,7.5,8S8,7.78,8,7.5V4h1v3.5C9,7.78,9.22,8,9.5,8S10,7.78,10,7.5V4h4c0.55,0,1,0.45,1,1v5
	c0,0.55-0.45,1-1,1h-2.28l0,0H2C1.45,11,1,10.55,1,10z"/>
<polygon fill="#D7C1B9" points="9,22.5 3,22.5 3,12 9,12 9,13.72 9,16.9 "/>
<path fill="#92A9B9" d="M10,16v-1c1.65,0,3-1.35,3-3h1C14,14.21,12.21,16,10,16z"/>
<rect x="18" y="11" fill="#92A9B9" width="1" height="10"/>
<path fill="#D7C1B9" d="M20,10h-3h-1V5h4c0.55,0,1,0.45,1,1v3C21,9.55,20.55,10,20,10z"/>
<rect x="22" y="6" fill="#B5BFC8" width="1" height="3"/>
<path fill="#766158" d="M11,25.5c0.55,0,1,0.45,1,1v1c0,0.55-0.45,1-1,1H4c-0.55,0-1-0.45-1-1v-2H11"/>
<path fill="#AE8273" d="M16,10h1h3c0.55,0,1-0.45,1-1V8h-5V10z"/>
<rect x="22" y="8" fill="#92A9B9" width="1" height="1"/>
<path fill="#AE8273" d="M14,11c0.55,0,1-0.45,1-1V9H1v1c0,0.55,0.45,1,1,1h9.72l0,0H14z"/>
<polygon fill="#AE8273" points="5,22.5 3,22.5 3,12 5,12 5,13.72 5,16.9 "/>
</svg>
