<?xml version="1.0" encoding="utf-8"?>
<!-- Generator: Adobe Illustrator 18.1.1, SVG Export Plug-In . SVG Version: 6.00 Build 0)  -->
<svg version="1.1" id="Слой_1" xmlns="http://www.w3.org/2000/svg" xmlns:xlink="http://www.w3.org/1999/xlink" x="0px" y="0px"
	 viewBox="0 0 32 32" enable-background="new 0 0 32 32" xml:space="preserve">
<rect x="0" y="0" fill="none" width="32" height="32"/>
<polyline fill="#D7C1B9" points="18,25 18,31 14,31 14,25 18,25 "/>
<path fill="#1D1D1B" d="M20,22v2h-8v-2H20 M20,21h-8c-0.55,0-1,0.45-1,1v2c0,0.55,0.45,1,1,1h8c0.55,0,1-0.45,1-1v-2
	C21,21.45,20.55,21,20,21L20,21z"/>
<rect x="14" y="27" fill="#AE8273" width="4" height="2"/>
<path fill="#DCA54D" d="M23,1v3c0,0.55-0.45,1-1,1s-1-0.45-1-1c0-1.1-0.9-2-2-2s-2,0.9-2,2v2c0,0.55-0.45,1-1,1s-1-0.45-1-1V5
	c0-1.1-0.9-2-2-2c-1.08,0-1.96,0.85-2,1.92l-0.05,0.38C10.82,5.71,10.44,6,10,6H9C8.73,6,8.48,6.11,8.29,6.29C8.11,6.48,8,6.73,8,7
	l0,6c0,0.55-0.45,1-1,1s-1-0.45-1-1V1h14H23"/>
<polyline fill="#D7C1B9" points="20,22 20,24 12,24 12,22 20,22 "/>
<path fill="#B5BFC8" d="M31,16c0,0.55-0.45,1-1,1H17v4h-2v-5c0-0.55,0.45-1,1-1h13V7h-2V5h3c0.55,0,1,0.45,1,1V16z"/>
<path fill="#B5BFC8" d="M2,7C1.45,7,1,6.55,1,6s0.45-1,1-1h1v2H2z"/>
<path fill="#3A1B11" d="M30,4h-3V1c0-0.55-0.45-1-1-1h-2h-4H5H4C3.45,0,3,0.45,3,1v3H2C0.9,4,0,4.9,0,6c0,1.1,0.9,2,2,2h1v3
	c0,0.55,0.45,1,1,1h1v1c0,1.1,0.9,2,2,2s2-0.9,2-2v-1h17c0.55,0,1-0.45,1-1V8h1v6H16c-1.1,0-2,0.9-2,2v5h-2c-0.55,0-1,0.45-1,1v2
	c0,0.55,0.45,1,1,1h1v6c0,0.55,0.45,1,1,1h4c0.55,0,1-0.45,1-1v-6h1c0.55,0,1-0.45,1-1v-2c0-0.55-0.45-1-1-1h-2v-3h12
	c1.1,0,2-0.9,2-2V6C32,4.9,31.1,4,30,4z M3,7H2C1.45,7,1,6.55,1,6s0.45-1,1-1h1V7z M4,11V8V7V5V4V1h1v10H4z M8,13c0,0.55-0.45,1-1,1
	s-1-0.45-1-1v-1v-1V1h14h3v3c0,0.55-0.45,1-1,1s-1-0.45-1-1c0-1.1-0.9-2-2-2c-1.1,0-2,0.9-2,2v2c0,0.55-0.45,1-1,1s-1-0.45-1-1V5
	c0-1.1-0.9-2-2-2c-1.08,0-1.96,0.85-2,1.92l-0.05,0.38C10.82,5.71,10.44,6,10,6H9C8.73,6,8.48,6.11,8.29,6.29C8.11,6.48,8,6.73,8,7
	v4v1V13z M26,4v1v2v1v3H9V7c0,0,0.75,0,1,0c0.93,0,1.71-0.64,1.93-1.5L12,5c0-0.55,0.45-1,1-1c0.55,0,1,0.45,1,1v1c0,1.1,0.9,2,2,2
	s2-0.9,2-2V4c0-0.55,0.45-1,1-1c0.55,0,1,0.45,1,1c0,1.1,0.9,2,2,2s2-0.9,2-2V1h2V4z M18,31h-4v-6h4V31z M20,22v2h-2h-4h-2v-2h2.03
	h1.03h1.86h1.03H20z M31,16c0,0.55-0.45,1-1,1H17v4h-2v-5c0-0.55,0.45-1,1-1h13V7h-2V5h3c0.55,0,1,0.45,1,1V16z"/>
<polygon fill="#255372" points="19.5,15 18,17 19,17 20.5,15 "/>
<polygon fill="#255372" points="21.5,15 20,17 23,17 24.5,15 "/>
<polyline fill="#AE8273" points="14,22 14,24 12,24 12,22 14,22 "/>
<polyline fill="#AE8273" points="15,25 15,31 14,31 14,25 15,25 "/>
<rect x="14" y="27" fill="#766158" width="1" height="2"/>
<g>
	<polygon fill="#D7C1B9" points="4,1 4,4 4,5 4,7 4,8 4,11 5,11 5,1 	"/>
	<path fill="#D7C1B9" d="M26,8V7V5V4V1h-2v3c0,1.1-0.9,2-2,2s-2-0.9-2-2c0-0.55-0.45-1-1-1c-0.55,0-1,0.45-1,1v2c0,1.1-0.9,2-2,2
		s-2-0.9-2-2V5c0-0.55-0.45-1-1-1c-0.55,0-1,0.45-1,1l-0.07,0.5C11.71,6.36,10.93,7,10,7C9.75,7,9,7,9,7v4h17V8z"/>
</g>
</svg>
