<?xml version="1.0" encoding="utf-8"?>
<!-- Generator: Adobe Illustrator 18.1.1, SVG Export Plug-In . SVG Version: 6.00 Build 0)  -->
<svg version="1.1" id="Слой_1" xmlns="http://www.w3.org/2000/svg" xmlns:xlink="http://www.w3.org/1999/xlink" x="0px" y="0px"
	 viewBox="0 0 32 32" enable-background="new 0 0 32 32" xml:space="preserve">
<rect x="0" fill="none" width="32" height="32"/>
<g>
	<path fill="#B5BFC8" d="M28,21h-4v3c0,1.63-1.37,3-3,3c-0.81,0-1.56-0.34-2.11-0.89C18.34,25.56,18,24.81,18,24v-4.15v-4.48h-4
		v4.48V24c0,0.96,0.2,1.88,0.55,2.72c0.27,0.63,0.62,1.21,1.05,1.73c0.14,0.17,0.29,0.34,0.45,0.5c0.63,0.63,1.39,1.15,2.23,1.5
		c0.42,0.18,0.86,0.32,1.31,0.41C20.05,30.95,20.52,31,21,31c3.86,0,7-3.14,7-7V21z"/>
	<path fill="#B5BFC8" d="M14,8v3.38h4V8c0-3.86-3.14-7-7-7c-0.48,0-0.95,0.05-1.41,0.14S8.7,1.37,8.28,1.55
		c-0.84,0.35-1.59,0.87-2.23,1.5C5.89,3.21,5.74,3.38,5.6,3.55c-0.43,0.52-0.78,1.1-1.05,1.73C4.2,6.12,4,7.04,4,8v10h4V8
		c0-0.81,0.34-1.56,0.89-2.11C9.44,5.34,10.19,5,11,5C12.63,5,14,6.37,14,8z"/>
</g>
<path fill="#3A1B11" d="M27.5,11.13V1.5C27.5,0.67,26.83,0,26,0s-1.5,0.67-1.5,1.5v9.63c-2.02,0.64-3.5,2.51-3.5,4.75h10
	C31,13.64,29.52,11.77,27.5,11.13z M25.5,10.9V1.5C25.5,1.22,25.72,1,26,1s0.5,0.22,0.5,0.5v9.4c-0.17-0.02-0.34-0.02-0.5-0.02
	S25.67,10.88,25.5,10.9z M25.29,11.94c0.23-0.04,0.47-0.07,0.71-0.07s0.48,0.03,0.71,0.07c1.54,0.28,2.78,1.44,3.16,2.93h-7.75
	C22.51,13.38,23.75,12.22,25.29,11.94z"/>
<path fill="#D7C1B9" d="M26.5,10.9V1.5C26.5,1.22,26.28,1,26,1s-0.5,0.22-0.5,0.5v9.4c0.17-0.02,0.34-0.02,0.5-0.02
	S26.33,10.88,26.5,10.9z"/>
<path fill="#DCA54D" d="M26,11.88c-1.86,0-3.43,1.28-3.87,3h7.75C29.43,13.15,27.86,11.88,26,11.88z"/>
<g>
	<rect x="23.98" y="18" fill="#DCA54D" width="6.02" height="2"/>
</g>
<g>
	<g>
		<rect x="22" y="18" fill="#DB7831" width="1.98" height="2"/>
	</g>
</g>
<g>
	<g>
		<rect x="2" y="19" fill="#DB7831" width="1.98" height="2"/>
	</g>
</g>
<g>
	<rect x="12.98" y="12.38" fill="#DB7831" width="2" height="2"/>
</g>
<g>
	<rect x="3.98" y="19" fill="#DCA54D" width="6.02" height="2"/>
</g>
<g>
	<rect x="14.98" y="12.38" fill="#DCA54D" width="4" height="2"/>
</g>
<path fill="#255372" d="M21,27c-1.63,0-3-1.37-3-3h-4c0,3.86,3.14,7,7,7s7-3.14,7-7h-4C24,25.63,22.63,27,21,27z"/>
<g>
	<path fill="#92A9B9" d="M20.99,30.01c-2.9,0-5.38-2.07-5.9-4.92c-0.05-0.27,0.13-0.53,0.4-0.58c0.27-0.04,0.53,0.13,0.58,0.4
		c0.43,2.37,2.5,4.1,4.91,4.1c0.28,0,0.5,0.22,0.5,0.5S21.27,30.01,20.99,30.01z"/>
</g>
<path fill="#3A1B11" d="M31,17H21v4h2v3c0,1.08-0.92,2-2,2s-2-0.92-2-2v-4.15v-4.48h0.98v-4H19V8c0-4.41-3.59-8-8-8S3,3.59,3,8v10H1
	v4h10v-4H9V8c0-1.08,0.92-2,2-2s2,0.92,2,2v3.38h-1.02v4H13v4.48V24c0,4.41,3.59,8,8,8s8-3.59,8-8v-3h2V17z M10,19v2H2v-2H10z M11,5
	C9.37,5,8,6.37,8,8v10H4V8c0-3.86,3.14-7,7-7s7,3.14,7,7v3.38h-4V8C14,6.37,12.63,5,11,5z M12.98,14.38v-2h6v2H12.98z M28,24
	c0,3.86-3.14,7-7,7s-7-3.14-7-7v-4.15v-4.48h4v4.48V24c0,1.63,1.37,3,3,3s3-1.37,3-3v-3h4V24z M30,20h-8v-2h8V20z"/>
<path fill="#DB7831" d="M26.57,11.92c-0.19-0.03-0.38-0.05-0.57-0.05c-1.86,0-3.43,1.28-3.87,3h2
	C24.42,13.33,25.39,12.16,26.57,11.92z"/>
</svg>
